<?xml version="1.0" encoding="UTF-8" standalone="no"?>
<!DOCTYPE svg PUBLIC "-//W3C//DTD SVG 1.1//EN"
 "http://www.w3.org/Graphics/SVG/1.1/DTD/svg11.dtd">
<!-- Generated by graphviz version 12.1.2 (20240928.0832)
 -->
<!-- Title: Credito.ParametroPoliticaHis Pages: 1 -->
<svg width="933pt" height="777pt"
 viewBox="0.00 0.00 933.49 776.80" xmlns="http://www.w3.org/2000/svg" xmlns:xlink="http://www.w3.org/1999/xlink">
<g id="graph0" class="graph" transform="scale(1 1) rotate(0) translate(4 772.8)">
<title>Credito.ParametroPoliticaHis</title>
<polygon fill="white" stroke="none" points="-4,4 -4,-772.8 929.49,-772.8 929.49,4 -4,4"/>
<!-- Credito.ParametroPoliticaHis -->
<g id="node1" class="node">
<title>Credito.ParametroPoliticaHis</title>
<polygon fill="#efefef" stroke="none" points="46.2,-676.6 46.2,-722.6 871.74,-722.6 871.74,-676.6 46.2,-676.6"/>
<polygon fill="none" stroke="black" points="46.2,-676.6 46.2,-722.6 871.74,-722.6 871.74,-676.6 46.2,-676.6"/>
<text text-anchor="start" x="288.17" y="-700.4" font-family="Arial Bold" font-size="18.00">Credito.ParametroPoliticaHis</text>
<text text-anchor="start" x="500.62" y="-700.4" font-family="Arial" font-size="14.00">    </text>
<text text-anchor="start" x="531.74" y="-700.4" font-family="Arial" font-size="14.00" fill="#666666">[BASIC TABLE]</text>
<text text-anchor="start" x="307.23" y="-686" font-family="Arial" font-size="14.00" fill="#333333">Historial de cambios de un parametro de politica.</text>
<polygon fill="none" stroke="black" points="46.2,-645.8 46.2,-676.6 871.74,-676.6 871.74,-645.8 46.2,-645.8"/>
<text text-anchor="start" x="53.2" y="-658" font-family="Arial" font-size="14.00">FechaModificacion </text>
<text text-anchor="start" x="173.81" y="-658" font-family="Arial" font-size="14.00" fill="#666666">[datetime2]</text>
<text text-anchor="start" x="243.07" y="-658" font-family="Arial" font-size="14.00"> Fecha en la que se realizo la modificacion sobre el parametro de politica.</text>
<polygon fill="none" stroke="black" points="46.2,-615 46.2,-645.8 871.74,-645.8 871.74,-615 46.2,-615"/>
<text text-anchor="start" x="53.2" y="-627.2" font-family="Arial" font-size="14.00">IdHistorial </text>
<text text-anchor="start" x="119.33" y="-627.2" font-family="Arial" font-size="14.00" fill="#666666">[bigint]</text>
<polygon fill="none" stroke="black" points="46.2,-584.2 46.2,-615 871.74,-615 871.74,-584.2 46.2,-584.2"/>
<text text-anchor="start" x="53.2" y="-596.4" font-family="Arial" font-size="14.00">IdParametro </text>
<text text-anchor="start" x="134.12" y="-596.4" font-family="Arial" font-size="14.00" fill="#666666">[int]</text>
<text text-anchor="start" x="156.69" y="-596.4" font-family="Arial" font-size="14.00"> FK a ParametroPolitica, indica el parametro de politica al que pertenece el historial.</text>
<polygon fill="none" stroke="black" points="46.2,-553.4 46.2,-584.2 871.74,-584.2 871.74,-553.4 46.2,-553.4"/>
<text text-anchor="start" x="53.2" y="-565.6" font-family="Arial" font-size="14.00">ModificadoPor </text>
<text text-anchor="start" x="146.58" y="-565.6" font-family="Arial" font-size="14.00" fill="#666666">[int]</text>
<text text-anchor="start" x="169.14" y="-565.6" font-family="Arial" font-size="14.00"> Usuario que realizo el cambio sobre el parametro de politica. Referencia logica (sin FK) a SeguridadDB.</text>
<polygon fill="none" stroke="black" points="46.2,-522.6 46.2,-553.4 871.74,-553.4 871.74,-522.6 46.2,-522.6"/>
<text text-anchor="start" x="53.2" y="-534.8" font-family="Arial" font-size="14.00">Motivo </text>
<text text-anchor="start" x="98.32" y="-534.8" font-family="Arial" font-size="14.00" fill="#666666">[varchar(300)]</text>
<text text-anchor="start" x="185.47" y="-534.8" font-family="Arial" font-size="14.00"> Motivo del cambio realizado sobre el parametro de politica.</text>
<polygon fill="none" stroke="black" points="46.2,-491.8 46.2,-522.6 871.74,-522.6 871.74,-491.8 46.2,-491.8"/>
<text text-anchor="start" x="53.2" y="-504" font-family="Arial" font-size="14.00">TipoOperacion </text>
<text text-anchor="start" x="148.92" y="-504" font-family="Arial" font-size="14.00" fill="#666666">[char]</text>
<text text-anchor="start" x="183.93" y="-504" font-family="Arial" font-size="14.00"> Tipo de operacion realizada sobre el parametro de politica (ej:&#39; I para Insert, U para Update y D para Delete&#39;).</text>
<polygon fill="none" stroke="black" points="46.2,-461 46.2,-491.8 871.74,-491.8 871.74,-461 46.2,-461"/>
<text text-anchor="start" x="53.2" y="-473.2" font-family="Arial" font-size="14.00">ValorAnterior </text>
<text text-anchor="start" x="138.79" y="-473.2" font-family="Arial" font-size="14.00" fill="#666666">[decimal]</text>
<text text-anchor="start" x="194.81" y="-473.2" font-family="Arial" font-size="14.00"> Valor anterior del parametro de politica antes de la operacion realizada.</text>
<polygon fill="none" stroke="black" points="46.2,-430.2 46.2,-461 871.74,-461 871.74,-430.2 46.2,-430.2"/>
<text text-anchor="start" x="53.2" y="-442.4" font-family="Arial" font-size="14.00">ValorNuevo </text>
<text text-anchor="start" x="130.24" y="-442.4" font-family="Arial" font-size="14.00" fill="#666666">[decimal]</text>
<text text-anchor="start" x="186.26" y="-442.4" font-family="Arial" font-size="14.00"> Valor nuevo del parametro de politica despues de la operacion realizada.</text>
<polygon fill="none" stroke="black" stroke-width="3" points="44.7,-428.7 44.7,-724.1 873.24,-724.1 873.24,-428.7 44.7,-428.7"/>
</g>
<!-- Credito.ParametroPolitica -->
<g id="node2" class="node">
<title>Credito.ParametroPolitica</title>
<polygon fill="#efefef" stroke="none" points="87.45,-258.8 87.45,-304.8 830.49,-304.8 830.49,-258.8 87.45,-258.8"/>
<polygon fill="none" stroke="black" points="87.45,-258.8 87.45,-304.8 830.49,-304.8 830.49,-258.8 87.45,-258.8"/>
<text text-anchor="start" x="300.67" y="-282.6" font-family="Arial Bold" font-size="18.00">Credito.ParametroPolitica</text>
<text text-anchor="start" x="488.12" y="-282.6" font-family="Arial" font-size="14.00">    </text>
<text text-anchor="start" x="519.24" y="-282.6" font-family="Arial" font-size="14.00" fill="#666666">[BASIC TABLE]</text>
<text text-anchor="start" x="182.31" y="-268.2" font-family="Arial" font-size="14.00" fill="#333333">Parametros configurables de politica o reglas para la aprobacion y rechazo de un credito.</text>
<polygon fill="none" stroke="black" points="87.45,-228 87.45,-258.8 830.49,-258.8 830.49,-228 87.45,-228"/>
<text text-anchor="start" x="94.45" y="-240.2" font-family="Arial" font-size="14.00">Clave </text>
<text text-anchor="start" x="134.14" y="-240.2" font-family="Arial" font-size="14.00" fill="#666666">[varchar(50)]</text>
<text text-anchor="start" x="213.5" y="-240.2" font-family="Arial" font-size="14.00"> Clave unica del parametro de politica, usado en transacciones y operaciones del core.</text>
<polygon fill="none" stroke="black" points="87.45,-197.2 87.45,-228 830.49,-228 830.49,-197.2 87.45,-197.2"/>
<text text-anchor="start" x="94.45" y="-209.4" font-family="Arial" font-size="14.00">Descripcion </text>
<text text-anchor="start" x="171.48" y="-209.4" font-family="Arial" font-size="14.00" fill="#666666">[varchar(250)]</text>
<text text-anchor="start" x="258.63" y="-209.4" font-family="Arial" font-size="14.00"> Descripcion del parametro de politica, usada en reportes y logs.</text>
<polygon fill="none" stroke="black" points="87.45,-166.4 87.45,-197.2 830.49,-197.2 830.49,-166.4 87.45,-166.4"/>
<text text-anchor="start" x="94.45" y="-178.6" font-family="Arial" font-size="14.00">IdParametro </text>
<text text-anchor="start" x="175.38" y="-178.6" font-family="Arial" font-size="14.00" fill="#666666">[int]</text>
<polygon fill="none" stroke="black" points="87.45,-135.6 87.45,-166.4 830.49,-166.4 830.49,-135.6 87.45,-135.6"/>
<text text-anchor="start" x="94.45" y="-147.8" font-family="Arial" font-size="14.00">Unidad </text>
<text text-anchor="start" x="142.71" y="-147.8" font-family="Arial" font-size="14.00" fill="#666666">[varchar(15)]</text>
<text text-anchor="start" x="222.07" y="-147.8" font-family="Arial" font-size="14.00"> Unidad de medida del parametro de politica (ej:&#39; Score, Dias, Anios, Meses, Porcentaje, Monto&#39;).</text>
<polygon fill="none" stroke="black" points="87.45,-104.8 87.45,-135.6 830.49,-135.6 830.49,-104.8 87.45,-104.8"/>
<text text-anchor="start" x="94.45" y="-117" font-family="Arial" font-size="14.00">Valor </text>
<text text-anchor="start" x="131.03" y="-117" font-family="Arial" font-size="14.00" fill="#666666">[decimal]</text>
<text text-anchor="start" x="187.05" y="-117" font-family="Arial" font-size="14.00"> Valor del parametro de politica, usado en transacciones y operaciones del core.</text>
<polygon fill="none" stroke="black" points="87.45,-74 87.45,-104.8 830.49,-104.8 830.49,-74 87.45,-74"/>
<text text-anchor="start" x="94.45" y="-86.2" font-family="Arial" font-size="14.00">VigenciaDesde </text>
<text text-anchor="start" x="192.52" y="-86.2" font-family="Arial" font-size="14.00" fill="#666666">[date]</text>
<text text-anchor="start" x="227.54" y="-86.2" font-family="Arial" font-size="14.00"> Fecha desde la cual el parametro de politica es vigente.</text>
<polygon fill="none" stroke="black" points="87.45,-43.2 87.45,-74 830.49,-74 830.49,-43.2 87.45,-43.2"/>
<text text-anchor="start" x="94.45" y="-55.4" font-family="Arial" font-size="14.00">VigenciaHasta </text>
<text text-anchor="start" x="188.62" y="-55.4" font-family="Arial" font-size="14.00" fill="#666666">[date]</text>
<text text-anchor="start" x="223.65" y="-55.4" font-family="Arial" font-size="14.00"> Fecha hasta la cual el parametro de politica es vigente.</text>
</g>
<!-- Credito.ParametroPoliticaHis&#45;&gt;Credito.ParametroPolitica -->
<g id="edge1" class="edge">
<title>Credito.ParametroPoliticaHis:IdParametro&#45;&gt;Credito.ParametroPolitica:IdParametro</title>
<path fill="none" stroke="black" d="M882.58,-597.92C962.9,-569.17 921.32,-181.8 831.49,-181.8"/>
<polygon fill="black" stroke="black" points="882.93,-597.86 872.31,-595.11 877.67,-598.76 873.4,-599.49 873.4,-599.49 873.4,-599.49 877.67,-598.76 873.83,-603.98 882.93,-597.86"/>
</g>
</g>
</svg>
