<?xml version="1.0" encoding="UTF-8" standalone="no"?>
<!DOCTYPE svg PUBLIC "-//W3C//DTD SVG 1.1//EN"
 "http://www.w3.org/Graphics/SVG/1.1/DTD/svg11.dtd">
<!-- Generated by graphviz version 12.1.2 (20240928.0832)
 -->
<!-- Title: Credito.TipoCreditoSeguro Pages: 1 -->
<svg width="4405pt" height="1572pt"
 viewBox="0.00 0.00 4404.98 1571.60" xmlns="http://www.w3.org/2000/svg" xmlns:xlink="http://www.w3.org/1999/xlink">
<g id="graph0" class="graph" transform="scale(1 1) rotate(0) translate(4 1567.6)">
<title>Credito.TipoCreditoSeguro</title>
<polygon fill="white" stroke="none" points="-4,4 -4,-1567.6 4400.98,-1567.6 4400.98,4 -4,4"/>
<!-- Credito.TipoCreditoSeguro -->
<g id="node1" class="node">
<title>Credito.TipoCreditoSeguro</title>
<polygon fill="#efefef" stroke="none" points="863.44,-1058.6 863.44,-1104.6 1479.78,-1104.6 1479.78,-1058.6 863.44,-1058.6"/>
<polygon fill="none" stroke="black" points="863.44,-1058.6 863.44,-1104.6 1479.78,-1104.6 1479.78,-1058.6 863.44,-1058.6"/>
<text text-anchor="start" x="1008.3" y="-1082.4" font-family="Arial Bold" font-size="18.00">Credito.TipoCreditoSeguro</text>
<text text-anchor="start" x="1205.77" y="-1082.4" font-family="Arial" font-size="14.00">    </text>
<text text-anchor="start" x="1236.89" y="-1082.4" font-family="Arial" font-size="14.00" fill="#666666">[BASIC TABLE]</text>
<text text-anchor="start" x="1036.58" y="-1068" font-family="Arial" font-size="14.00" fill="#333333">Seguros habilitados para un tipo de credito.</text>
<polygon fill="none" stroke="black" points="863.44,-1027.8 863.44,-1058.6 1479.78,-1058.6 1479.78,-1027.8 863.44,-1027.8"/>
<text text-anchor="start" x="870.44" y="-1040" font-family="Arial" font-size="14.00">EsObligatorio </text>
<text text-anchor="start" x="958.38" y="-1040" font-family="Arial" font-size="14.00" fill="#666666">[bit]</text>
<text text-anchor="start" x="980.94" y="-1040" font-family="Arial" font-size="14.00"> Indica si el seguro es obligatorio para el tipo de credito (true/false).</text>
<polygon fill="none" stroke="black" points="863.44,-997 863.44,-1027.8 1479.78,-1027.8 1479.78,-997 863.44,-997"/>
<text text-anchor="start" x="870.44" y="-1009.2" font-family="Arial" font-size="14.00">Estado </text>
<text text-anchor="start" x="917.92" y="-1009.2" font-family="Arial" font-size="14.00" fill="#666666">[char]</text>
<text text-anchor="start" x="952.93" y="-1009.2" font-family="Arial" font-size="14.00"> Estado de la asociacion entre el tipo de credito y el seguro que incluye si esta (I/A).</text>
<polygon fill="none" stroke="black" points="863.44,-966.2 863.44,-997 1479.78,-997 1479.78,-966.2 863.44,-966.2"/>
<text text-anchor="start" x="870.44" y="-978.4" font-family="Arial" font-size="14.00">IdSeguro </text>
<text text-anchor="start" x="931.15" y="-978.4" font-family="Arial" font-size="14.00" fill="#666666">[int]</text>
<text text-anchor="start" x="953.72" y="-978.4" font-family="Arial" font-size="14.00"> FK a Seguro, indica el seguro habilitado para el tipo de credito.</text>
<polygon fill="none" stroke="black" points="863.44,-935.4 863.44,-966.2 1479.78,-966.2 1479.78,-935.4 863.44,-935.4"/>
<text text-anchor="start" x="870.44" y="-947.6" font-family="Arial" font-size="14.00">IdTipoCredito </text>
<text text-anchor="start" x="958.38" y="-947.6" font-family="Arial" font-size="14.00" fill="#666666">[int]</text>
<text text-anchor="start" x="980.94" y="-947.6" font-family="Arial" font-size="14.00"> FK a TipoCredito, indica el tipo de credito al que se asocia el seguro.</text>
<polygon fill="none" stroke="black" points="863.44,-904.6 863.44,-935.4 1479.78,-935.4 1479.78,-904.6 863.44,-904.6"/>
<text text-anchor="start" x="870.44" y="-916.8" font-family="Arial" font-size="14.00">IdTipoCreditoSeguro </text>
<text text-anchor="start" x="1003.52" y="-916.8" font-family="Arial" font-size="14.00" fill="#666666">[int]</text>
<polygon fill="none" stroke="black" stroke-width="3" points="861.94,-903.1 861.94,-1106.1 1481.28,-1106.1 1481.28,-903.1 861.94,-903.1"/>
</g>
<!-- Credito.Seguro -->
<g id="node2" class="node">
<title>Credito.Seguro</title>
<polygon fill="#efefef" stroke="none" points="459.54,-320.4 459.54,-366.4 1111.69,-366.4 1111.69,-320.4 459.54,-320.4"/>
<polygon fill="none" stroke="black" points="459.54,-320.4 459.54,-366.4 1111.69,-366.4 1111.69,-320.4 459.54,-320.4"/>
<text text-anchor="start" x="666.29" y="-344.2" font-family="Arial Bold" font-size="18.00">Credito.Seguro</text>
<text text-anchor="start" x="775.78" y="-344.2" font-family="Arial" font-size="14.00">    </text>
<text text-anchor="start" x="806.9" y="-344.2" font-family="Arial" font-size="14.00" fill="#666666">[BASIC TABLE]</text>
<text text-anchor="start" x="645.52" y="-329.8" font-family="Arial" font-size="14.00" fill="#333333">Catalogo de seguros asociables a un credito.</text>
<polygon fill="none" stroke="black" points="459.54,-289.6 459.54,-320.4 1111.69,-320.4 1111.69,-289.6 459.54,-289.6"/>
<text text-anchor="start" x="466.54" y="-301.8" font-family="Arial" font-size="14.00">Aseguradora </text>
<text text-anchor="start" x="550.59" y="-301.8" font-family="Arial" font-size="14.00" fill="#666666">[varchar(100)]</text>
<text text-anchor="start" x="637.74" y="-301.8" font-family="Arial" font-size="14.00"> Nombre de la aseguradora que ofrece el seguro, usado en reportes y logs.</text>
<polygon fill="none" stroke="black" points="459.54,-258.8 459.54,-289.6 1111.69,-289.6 1111.69,-258.8 459.54,-258.8"/>
<text text-anchor="start" x="466.54" y="-271" font-family="Arial" font-size="14.00">CodigoSeguro </text>
<text text-anchor="start" x="559.94" y="-271" font-family="Arial" font-size="14.00" fill="#666666">[varchar(15)]</text>
<text text-anchor="start" x="639.3" y="-271" font-family="Arial" font-size="14.00"> Codigo unico del seguro, usado en transacciones y operaciones del core.</text>
<polygon fill="none" stroke="black" points="459.54,-228 459.54,-258.8 1111.69,-258.8 1111.69,-228 459.54,-228"/>
<text text-anchor="start" x="466.54" y="-240.2" font-family="Arial" font-size="14.00">Estado </text>
<text text-anchor="start" x="514.01" y="-240.2" font-family="Arial" font-size="14.00" fill="#666666">[char]</text>
<text text-anchor="start" x="549.03" y="-240.2" font-family="Arial" font-size="14.00"> Estado del seguro que incluye si esta (I/A).</text>
<polygon fill="none" stroke="black" points="459.54,-197.2 459.54,-228 1111.69,-228 1111.69,-197.2 459.54,-197.2"/>
<text text-anchor="start" x="466.54" y="-209.4" font-family="Arial" font-size="14.00">IdSeguro </text>
<text text-anchor="start" x="527.25" y="-209.4" font-family="Arial" font-size="14.00" fill="#666666">[int]</text>
<polygon fill="none" stroke="black" points="459.54,-166.4 459.54,-197.2 1111.69,-197.2 1111.69,-166.4 459.54,-166.4"/>
<text text-anchor="start" x="466.54" y="-178.6" font-family="Arial" font-size="14.00">Nombre </text>
<text text-anchor="start" x="520.22" y="-178.6" font-family="Arial" font-size="14.00" fill="#666666">[varchar(60)]</text>
<text text-anchor="start" x="599.58" y="-178.6" font-family="Arial" font-size="14.00"> Nombre del seguro, usado en reportes y logs.</text>
<polygon fill="none" stroke="black" points="459.54,-135.6 459.54,-166.4 1111.69,-166.4 1111.69,-135.6 459.54,-135.6"/>
<text text-anchor="start" x="466.54" y="-147.8" font-family="Arial" font-size="14.00">TipoCalculo </text>
<text text-anchor="start" x="544.35" y="-147.8" font-family="Arial" font-size="14.00" fill="#666666">[varchar(10)]</text>
<text text-anchor="start" x="623.71" y="-147.8" font-family="Arial" font-size="14.00"> Tipo de calculo del seguro (ej:&#39; Porcentaje o Fijo&#39;).</text>
<polygon fill="none" stroke="black" points="459.54,-104.8 459.54,-135.6 1111.69,-135.6 1111.69,-104.8 459.54,-104.8"/>
<text text-anchor="start" x="466.54" y="-117" font-family="Arial" font-size="14.00">Valor </text>
<text text-anchor="start" x="503.11" y="-117" font-family="Arial" font-size="14.00" fill="#666666">[decimal]</text>
<text text-anchor="start" x="559.13" y="-117" font-family="Arial" font-size="14.00"> Valor del seguro, expresado como porcentaje o monto fijo segun el tipo de calculo.</text>
<polygon fill="none" stroke="black" points="459.54,-74 459.54,-104.8 1111.69,-104.8 1111.69,-74 459.54,-74"/>
<text text-anchor="start" x="466.54" y="-86.2" font-family="Arial" font-size="14.00">VigenciaDesde </text>
<text text-anchor="start" x="564.6" y="-86.2" font-family="Arial" font-size="14.00" fill="#666666">[date]</text>
<text text-anchor="start" x="599.63" y="-86.2" font-family="Arial" font-size="14.00"> Fecha desde la cual el seguro es vigente.</text>
<polygon fill="none" stroke="black" points="459.54,-43.2 459.54,-74 1111.69,-74 1111.69,-43.2 459.54,-43.2"/>
<text text-anchor="start" x="466.54" y="-55.4" font-family="Arial" font-size="14.00">VigenciaHasta </text>
<text text-anchor="start" x="560.7" y="-55.4" font-family="Arial" font-size="14.00" fill="#666666">[date]</text>
<text text-anchor="start" x="595.73" y="-55.4" font-family="Arial" font-size="14.00"> Fecha hasta la cual el seguro es vigente.</text>
</g>
<!-- Credito.TipoCreditoSeguro&#45;&gt;Credito.Seguro -->
<g id="edge1" class="edge">
<title>Credito.TipoCreditoSeguro:IdSeguro&#45;&gt;Credito.Seguro:IdSeguro</title>
<path fill="none" stroke="black" d="M852.28,-980.59C813.44,-971.81 850.52,-907.64 863.44,-858.4 921.31,-637.92 1054.15,-630.17 1111.69,-409.6 1133.79,-324.88 1200.24,-212.6 1112.69,-212.6"/>
<polygon fill="black" stroke="black" points="852.16,-980.58 861.67,-986.04 857.47,-981.1 861.78,-981.53 861.78,-981.53 861.78,-981.53 857.47,-981.1 862.56,-977.09 852.16,-980.58"/>
</g>
<!-- Credito.TipoCredito -->
<g id="node4" class="node">
<title>Credito.TipoCredito</title>
<polygon fill="#efefef" stroke="none" points="2351.47,-274.2 2351.47,-320.2 3069.76,-320.2 3069.76,-274.2 2351.47,-274.2"/>
<polygon fill="none" stroke="black" points="2351.47,-274.2 2351.47,-320.2 3069.76,-320.2 3069.76,-274.2 2351.47,-274.2"/>
<text text-anchor="start" x="2572.8" y="-298" font-family="Arial Bold" font-size="18.00">Credito.TipoCredito</text>
<text text-anchor="start" x="2719.28" y="-298" font-family="Arial" font-size="14.00">    </text>
<text text-anchor="start" x="2750.39" y="-298" font-family="Arial" font-size="14.00" fill="#666666">[BASIC TABLE]</text>
<text text-anchor="start" x="2570.92" y="-283.6" font-family="Arial" font-size="14.00" fill="#333333">Catalogo de tipos/lineas de credito ofrecidas.</text>
<polygon fill="none" stroke="black" points="2351.47,-243.4 2351.47,-274.2 3069.76,-274.2 3069.76,-243.4 2351.47,-243.4"/>
<text text-anchor="start" x="2358.47" y="-255.6" font-family="Arial" font-size="14.00">CodigoTipoCredito </text>
<text text-anchor="start" x="2479.09" y="-255.6" font-family="Arial" font-size="14.00" fill="#666666">[varchar(15)]</text>
<text text-anchor="start" x="2558.44" y="-255.6" font-family="Arial" font-size="14.00"> Codigo unico del tipo de credito, usado en transacciones y operaciones del core.</text>
<polygon fill="none" stroke="black" points="2351.47,-212.6 2351.47,-243.4 3069.76,-243.4 3069.76,-212.6 2351.47,-212.6"/>
<text text-anchor="start" x="2358.47" y="-224.8" font-family="Arial" font-size="14.00">Descripcion </text>
<text text-anchor="start" x="2435.49" y="-224.8" font-family="Arial" font-size="14.00" fill="#666666">[varchar(250)]</text>
<text text-anchor="start" x="2522.64" y="-224.8" font-family="Arial" font-size="14.00"> Descripcion del tipo de credito, usado en reportes y logs.</text>
<polygon fill="none" stroke="black" points="2351.47,-181.8 2351.47,-212.6 3069.76,-212.6 3069.76,-181.8 2351.47,-181.8"/>
<text text-anchor="start" x="2358.47" y="-194" font-family="Arial" font-size="14.00">Estado </text>
<text text-anchor="start" x="2405.94" y="-194" font-family="Arial" font-size="14.00" fill="#666666">[char]</text>
<text text-anchor="start" x="2440.95" y="-194" font-family="Arial" font-size="14.00"> Estado del tipo de credito que incluye si esta (I/A).</text>
<polygon fill="none" stroke="black" points="2351.47,-151 2351.47,-181.8 3069.76,-181.8 3069.76,-151 2351.47,-151"/>
<text text-anchor="start" x="2358.47" y="-163.2" font-family="Arial" font-size="14.00">FechaRegistro </text>
<text text-anchor="start" x="2453.4" y="-163.2" font-family="Arial" font-size="14.00" fill="#666666">[datetime2]</text>
<text text-anchor="start" x="2522.66" y="-163.2" font-family="Arial" font-size="14.00"> Fecha en la que se registro el tipo de credito, usado en reportes y logs.</text>
<polygon fill="none" stroke="black" points="2351.47,-120.2 2351.47,-151 3069.76,-151 3069.76,-120.2 2351.47,-120.2"/>
<text text-anchor="start" x="2358.47" y="-132.4" font-family="Arial" font-size="14.00">IdTipoCredito </text>
<text text-anchor="start" x="2446.4" y="-132.4" font-family="Arial" font-size="14.00" fill="#666666">[int]</text>
<polygon fill="none" stroke="black" points="2351.47,-89.4 2351.47,-120.2 3069.76,-120.2 3069.76,-89.4 2351.47,-89.4"/>
<text text-anchor="start" x="2358.47" y="-101.6" font-family="Arial" font-size="14.00">Nombre </text>
<text text-anchor="start" x="2412.15" y="-101.6" font-family="Arial" font-size="14.00" fill="#666666">[varchar(60)]</text>
<text text-anchor="start" x="2491.51" y="-101.6" font-family="Arial" font-size="14.00"> Nombre del tipo de credito, usado en reportes y logs.</text>
</g>
<!-- Credito.TipoCreditoSeguro&#45;&gt;Credito.TipoCredito -->
<g id="edge3" class="edge">
<title>Credito.TipoCreditoSeguro:IdTipoCredito&#45;&gt;Credito.TipoCredito:IdTipoCredito</title>
<path fill="none" stroke="black" d="M1490.96,-949.53C1585.72,-924.34 1468.81,-532.09 1535.61,-445.6 1772.47,-138.95 1962.99,-135.6 2350.47,-135.6"/>
<polygon fill="black" stroke="black" points="1491.03,-949.52 1480.55,-946.29 1485.74,-950.18 1481.44,-950.72 1481.44,-950.72 1481.44,-950.72 1485.74,-950.18 1481.67,-955.22 1491.03,-949.52"/>
</g>
<!-- Credito.CreditoPlanDetalleRubro -->
<g id="node3" class="node">
<title>Credito.CreditoPlanDetalleRubro</title>
<polygon fill="#efefef" stroke="none" points="43.2,-1074 43.2,-1120 756.02,-1120 756.02,-1074 43.2,-1074"/>
<polygon fill="none" stroke="black" points="43.2,-1074 43.2,-1120 756.02,-1120 756.02,-1074 43.2,-1074"/>
<text text-anchor="start" x="214.31" y="-1097.8" font-family="Arial Bold" font-size="18.00">Credito.CreditoPlanDetalleRubro</text>
<text text-anchor="start" x="455.76" y="-1097.8" font-family="Arial" font-size="14.00">    </text>
<text text-anchor="start" x="486.88" y="-1097.8" font-family="Arial" font-size="14.00" fill="#666666">[BASIC TABLE]</text>
<text text-anchor="start" x="163.81" y="-1083.4" font-family="Arial" font-size="14.00" fill="#333333">Detalle por rubro (seguro o impuesto) de un plan de amortizacion generado.</text>
<polygon fill="none" stroke="black" points="43.2,-1043.2 43.2,-1074 756.02,-1074 756.02,-1043.2 43.2,-1043.2"/>
<text text-anchor="start" x="50.2" y="-1055.4" font-family="Arial" font-size="14.00">IdDetalleRubro </text>
<text text-anchor="start" x="147.48" y="-1055.4" font-family="Arial" font-size="14.00" fill="#666666">[bigint]</text>
<polygon fill="none" stroke="black" points="43.2,-1012.4 43.2,-1043.2 756.02,-1043.2 756.02,-1012.4 43.2,-1012.4"/>
<text text-anchor="start" x="50.2" y="-1024.6" font-family="Arial" font-size="14.00">IdImpuesto </text>
<text text-anchor="start" x="123.35" y="-1024.6" font-family="Arial" font-size="14.00" fill="#666666">[int]</text>
<text text-anchor="start" x="145.92" y="-1024.6" font-family="Arial" font-size="14.00"> FK a Impuesto, indica el impuesto asociado al detalle del plan de amortizacion (null si no aplica).</text>
<polygon fill="none" stroke="black" points="43.2,-981.6 43.2,-1012.4 756.02,-1012.4 756.02,-981.6 43.2,-981.6"/>
<text text-anchor="start" x="50.2" y="-993.8" font-family="Arial" font-size="14.00">IdPlanCuota </text>
<text text-anchor="start" x="131.14" y="-993.8" font-family="Arial" font-size="14.00" fill="#666666">[bigint]</text>
<text text-anchor="start" x="172.39" y="-993.8" font-family="Arial" font-size="14.00"> FK a CreditoPlanAmortizacion, indica el plan de amortizacion asociado al detalle por rubro.</text>
<polygon fill="none" stroke="black" points="43.2,-950.8 43.2,-981.6 756.02,-981.6 756.02,-950.8 43.2,-950.8"/>
<text text-anchor="start" x="50.2" y="-963" font-family="Arial" font-size="14.00">IdSeguro </text>
<text text-anchor="start" x="110.91" y="-963" font-family="Arial" font-size="14.00" fill="#666666">[int]</text>
<text text-anchor="start" x="133.48" y="-963" font-family="Arial" font-size="14.00"> FK a Seguro, indica el seguro asociado al detalle del plan de amortizacion (null si no aplica).</text>
<polygon fill="none" stroke="black" points="43.2,-920 43.2,-950.8 756.02,-950.8 756.02,-920 43.2,-920"/>
<text text-anchor="start" x="50.2" y="-932.2" font-family="Arial" font-size="14.00">Monto </text>
<text text-anchor="start" x="93" y="-932.2" font-family="Arial" font-size="14.00" fill="#666666">[decimal]</text>
<text text-anchor="start" x="149.02" y="-932.2" font-family="Arial" font-size="14.00"> Monto del detalle del plan de amortizacion calculado para el rubro (seguro o impuesto).</text>
<polygon fill="none" stroke="black" points="43.2,-889.2 43.2,-920 756.02,-920 756.02,-889.2 43.2,-889.2"/>
<text text-anchor="start" x="50.2" y="-901.4" font-family="Arial" font-size="14.00">TipoRubro </text>
<text text-anchor="start" x="119.45" y="-901.4" font-family="Arial" font-size="14.00" fill="#666666">[varchar(10)]</text>
<text text-anchor="start" x="198.81" y="-901.4" font-family="Arial" font-size="14.00"> Tipo de rubro del detalle del plan de amortizacion (ej:&#39; Seguro o Impuesto&#39;).</text>
</g>
<!-- Credito.CreditoPlanDetalleRubro&#45;&gt;Credito.Seguro -->
<g id="edge2" class="edge">
<title>Credito.CreditoPlanDetalleRubro:IdSeguro&#45;&gt;Credito.Seguro:IdSeguro</title>
<path fill="none" stroke="black" d="M766.97,-965.2C805.14,-956.56 770.82,-893.41 756.02,-846 686.16,-622.17 529.04,-633.55 459.54,-409.6 433.59,-325.98 370.98,-212.6 458.54,-212.6"/>
<polygon fill="black" stroke="black" points="767.31,-965.17 756.91,-961.69 762,-965.7 757.69,-966.13 757.69,-966.13 757.69,-966.13 762,-965.7 757.81,-970.64 767.31,-965.17"/>
</g>
<!-- Credito.CreditoSolicitud -->
<g id="node5" class="node">
<title>Credito.CreditoSolicitud</title>
<polygon fill="#efefef" stroke="none" points="1587.52,-1474.4 1587.52,-1520.4 2765.7,-1520.4 2765.7,-1474.4 1587.52,-1474.4"/>
<polygon fill="none" stroke="black" points="1587.52,-1474.4 1587.52,-1520.4 2765.7,-1520.4 2765.7,-1474.4 1587.52,-1474.4"/>
<text text-anchor="start" x="2023.29" y="-1498.2" font-family="Arial Bold" font-size="18.00">Credito.CreditoSolicitud</text>
<text text-anchor="start" x="2200.78" y="-1498.2" font-family="Arial" font-size="14.00">    </text>
<text text-anchor="start" x="2231.9" y="-1498.2" font-family="Arial" font-size="14.00" fill="#666666">[BASIC TABLE]</text>
<text text-anchor="start" x="2034.58" y="-1483.8" font-family="Arial" font-size="14.00" fill="#333333">Solicitud de credito presentada por un cliente.</text>
<polygon fill="none" stroke="black" points="1587.52,-1443.6 1587.52,-1474.4 2765.7,-1474.4 2765.7,-1443.6 1587.52,-1443.6"/>
<text text-anchor="start" x="1594.52" y="-1455.8" font-family="Arial" font-size="14.00">AprobadoPor </text>
<text text-anchor="start" x="1680.91" y="-1455.8" font-family="Arial" font-size="14.00" fill="#666666">[int]</text>
<text text-anchor="start" x="1703.48" y="-1455.8" font-family="Arial" font-size="14.00"> Usuario que aprueba la solicitud de credito. Referencia logica (sin FK) a SeguridadDB.</text>
<polygon fill="none" stroke="black" points="1587.52,-1412.8 1587.52,-1443.6 2765.7,-1443.6 2765.7,-1412.8 1587.52,-1412.8"/>
<text text-anchor="start" x="1594.52" y="-1425" font-family="Arial" font-size="14.00">CapacidadPago </text>
<text text-anchor="start" x="1698.05" y="-1425" font-family="Arial" font-size="14.00" fill="#666666">[decimal]</text>
<text text-anchor="start" x="1754.07" y="-1425" font-family="Arial" font-size="14.00"> Capacidad de pago calculada para el socio al momento de la solicitud, usada en reportes y logs.</text>
<polygon fill="none" stroke="black" points="1587.52,-1382 1587.52,-1412.8 2765.7,-1412.8 2765.7,-1382 1587.52,-1382"/>
<text text-anchor="start" x="1594.52" y="-1394.2" font-family="Arial" font-size="14.00">CodigoMoneda </text>
<text text-anchor="start" x="1693.37" y="-1394.2" font-family="Arial" font-size="14.00" fill="#666666">[smallint]</text>
<text text-anchor="start" x="1748.6" y="-1394.2" font-family="Arial" font-size="14.00"> Codigo de la moneda en la que se expresa el monto solicitado.</text>
<polygon fill="none" stroke="black" points="1587.52,-1351.2 1587.52,-1382 2765.7,-1382 2765.7,-1351.2 1587.52,-1351.2"/>
<text text-anchor="start" x="1594.52" y="-1363.4" font-family="Arial" font-size="14.00">ConsienteConsultaBuro </text>
<text text-anchor="start" x="1746.28" y="-1363.4" font-family="Arial" font-size="14.00" fill="#666666">[bit]</text>
<text text-anchor="start" x="1768.85" y="-1363.4" font-family="Arial" font-size="14.00"> Indica si el socio dio consentimiento para la consulta del buro de credito (true/false &#45; Verficar validez si no utilizar la validez declarada en la tabla ReporteBuro).</text>
<polygon fill="none" stroke="black" points="1587.52,-1320.4 1587.52,-1351.2 2765.7,-1351.2 2765.7,-1320.4 1587.52,-1320.4"/>
<text text-anchor="start" x="1594.52" y="-1332.6" font-family="Arial" font-size="14.00">CreadoPor </text>
<text text-anchor="start" x="1666.11" y="-1332.6" font-family="Arial" font-size="14.00" fill="#666666">[int]</text>
<text text-anchor="start" x="1688.68" y="-1332.6" font-family="Arial" font-size="14.00"> Analista que registro la solicitud. Referencia logica (sin FK) a SeguridadDB.</text>
<polygon fill="none" stroke="black" points="1587.52,-1289.6 1587.52,-1320.4 2765.7,-1320.4 2765.7,-1289.6 1587.52,-1289.6"/>
<text text-anchor="start" x="1594.52" y="-1301.8" font-family="Arial" font-size="14.00">CuotaReferencial </text>
<text text-anchor="start" x="1706.58" y="-1301.8" font-family="Arial" font-size="14.00" fill="#666666">[decimal]</text>
<text text-anchor="start" x="1762.6" y="-1301.8" font-family="Arial" font-size="14.00"> Cuota referencial calculada para el credito solicitado, usada en reportes y logs.</text>
<polygon fill="none" stroke="black" points="1587.52,-1258.8 1587.52,-1289.6 2765.7,-1289.6 2765.7,-1258.8 1587.52,-1258.8"/>
<text text-anchor="start" x="1594.52" y="-1271" font-family="Arial" font-size="14.00">DeclaraLicitudFondos </text>
<text text-anchor="start" x="1733.82" y="-1271" font-family="Arial" font-size="14.00" fill="#666666">[bit]</text>
<text text-anchor="start" x="1756.38" y="-1271" font-family="Arial" font-size="14.00"> Indica si el socio declara la licitud de los fondos solicitados (true/false).</text>
<polygon fill="none" stroke="black" points="1587.52,-1228 1587.52,-1258.8 2765.7,-1258.8 2765.7,-1228 1587.52,-1228"/>
<text text-anchor="start" x="1594.52" y="-1240.2" font-family="Arial" font-size="14.00">DesembolsadoPor </text>
<text text-anchor="start" x="1713.58" y="-1240.2" font-family="Arial" font-size="14.00" fill="#666666">[int]</text>
<text text-anchor="start" x="1736.15" y="-1240.2" font-family="Arial" font-size="14.00"> Usuario que desembolsa el credito aprobado. Referencia logica (sin FK) a SeguridadDB.</text>
<polygon fill="none" stroke="black" points="1587.52,-1197.2 1587.52,-1228 2765.7,-1228 2765.7,-1197.2 1587.52,-1197.2"/>
<text text-anchor="start" x="1594.52" y="-1209.4" font-family="Arial" font-size="14.00">Estado </text>
<text text-anchor="start" x="1642" y="-1209.4" font-family="Arial" font-size="14.00" fill="#666666">[varchar(20)]</text>
<text text-anchor="start" x="1721.36" y="-1209.4" font-family="Arial" font-size="14.00"> Estado de la solicitud de credito que incluye si esta (DESISTIDA, DESEMBOLSADA, REVISION_MANUAL, APROBADA, RECHAZADA).</text>
<polygon fill="none" stroke="black" points="1587.52,-1166.4 1587.52,-1197.2 2765.7,-1197.2 2765.7,-1166.4 1587.52,-1166.4"/>
<text text-anchor="start" x="1594.52" y="-1178.6" font-family="Arial" font-size="14.00">FechaContable </text>
<text text-anchor="start" x="1693.36" y="-1178.6" font-family="Arial" font-size="14.00" fill="#666666">[date]</text>
<text text-anchor="start" x="1728.39" y="-1178.6" font-family="Arial" font-size="14.00"> Fecha contable de la resolucion de aprobacion/rechazo de la solicitud de credito (null si no aplica).</text>
<polygon fill="none" stroke="black" points="1587.52,-1135.6 1587.52,-1166.4 2765.7,-1166.4 2765.7,-1135.6 1587.52,-1135.6"/>
<text text-anchor="start" x="1594.52" y="-1147.8" font-family="Arial" font-size="14.00">FechaHoraSistema </text>
<text text-anchor="start" x="1718.24" y="-1147.8" font-family="Arial" font-size="14.00" fill="#666666">[datetime2]</text>
<text text-anchor="start" x="1787.5" y="-1147.8" font-family="Arial" font-size="14.00"> Fecha y hora del sistema en la que se registra la solicitud de credito.</text>
<polygon fill="none" stroke="black" points="1587.52,-1104.8 1587.52,-1135.6 2765.7,-1135.6 2765.7,-1104.8 1587.52,-1104.8"/>
<text text-anchor="start" x="1594.52" y="-1117" font-family="Arial" font-size="14.00">FechaResolucion </text>
<text text-anchor="start" x="1706.58" y="-1117" font-family="Arial" font-size="14.00" fill="#666666">[datetime2]</text>
<text text-anchor="start" x="1775.85" y="-1117" font-family="Arial" font-size="14.00"> Fecha en la que se toma la resolucion de aprobacion/rechazo de la solicitud de credito (null si no aplica).</text>
<polygon fill="none" stroke="black" points="1587.52,-1074 1587.52,-1104.8 2765.7,-1104.8 2765.7,-1074 1587.52,-1074"/>
<text text-anchor="start" x="1594.52" y="-1086.2" font-family="Arial" font-size="14.00">FechaSolicitud </text>
<text text-anchor="start" x="1690.24" y="-1086.2" font-family="Arial" font-size="14.00" fill="#666666">[date]</text>
<text text-anchor="start" x="1725.27" y="-1086.2" font-family="Arial" font-size="14.00"> Fecha en la que se presenta la solicitud de credito.</text>
<polygon fill="none" stroke="black" points="1587.52,-1043.2 1587.52,-1074 2765.7,-1074 2765.7,-1043.2 1587.52,-1043.2"/>
<text text-anchor="start" x="1594.52" y="-1055.4" font-family="Arial" font-size="14.00">IdAgencia </text>
<text text-anchor="start" x="1660.68" y="-1055.4" font-family="Arial" font-size="14.00" fill="#666666">[char]</text>
<text text-anchor="start" x="1695.69" y="-1055.4" font-family="Arial" font-size="14.00"> FK a Agencia, indica la agencia donde se presenta la solicitud de credito.</text>
<polygon fill="none" stroke="black" points="1587.52,-1012.4 1587.52,-1043.2 2765.7,-1043.2 2765.7,-1012.4 1587.52,-1012.4"/>
<text text-anchor="start" x="1594.52" y="-1024.6" font-family="Arial" font-size="14.00">IdCanal </text>
<text text-anchor="start" x="1646.67" y="-1024.6" font-family="Arial" font-size="14.00" fill="#666666">[int]</text>
<text text-anchor="start" x="1669.23" y="-1024.6" font-family="Arial" font-size="14.00"> FK a Canal, indica el canal por el que se presenta la solicitud de credito.</text>
<polygon fill="none" stroke="black" points="1587.52,-981.6 1587.52,-1012.4 2765.7,-1012.4 2765.7,-981.6 1587.52,-981.6"/>
<text text-anchor="start" x="1594.52" y="-993.8" font-family="Arial" font-size="14.00">IdCliente </text>
<text text-anchor="start" x="1653.67" y="-993.8" font-family="Arial" font-size="14.00" fill="#666666">[int]</text>
<text text-anchor="start" x="1676.23" y="-993.8" font-family="Arial" font-size="14.00"> FK a Cliente, indica el socio que presenta la solicitud de credito.</text>
<polygon fill="none" stroke="black" points="1587.52,-950.8 1587.52,-981.6 2765.7,-981.6 2765.7,-950.8 1587.52,-950.8"/>
<text text-anchor="start" x="1594.52" y="-963" font-family="Arial" font-size="14.00">IdCuentaDesembolso </text>
<text text-anchor="start" x="1733.05" y="-963" font-family="Arial" font-size="14.00" fill="#666666">[int]</text>
<text text-anchor="start" x="1755.61" y="-963" font-family="Arial" font-size="14.00"> FK a Cuenta, indica la cuenta donde se desembolsara el credito aprobado (null si no aplica).</text>
<polygon fill="none" stroke="black" points="1587.52,-920 1587.52,-950.8 2765.7,-950.8 2765.7,-920 1587.52,-920"/>
<text text-anchor="start" x="1594.52" y="-932.2" font-family="Arial" font-size="14.00">IdProducto </text>
<text text-anchor="start" x="1666.12" y="-932.2" font-family="Arial" font-size="14.00" fill="#666666">[int]</text>
<text text-anchor="start" x="1688.69" y="-932.2" font-family="Arial" font-size="14.00"> FK a Producto, indica el producto financiero asociado a la solicitud de credito.</text>
<polygon fill="none" stroke="black" points="1587.52,-889.2 1587.52,-920 2765.7,-920 2765.7,-889.2 1587.52,-889.2"/>
<text text-anchor="start" x="1594.52" y="-901.4" font-family="Arial" font-size="14.00">IdReporteBuro </text>
<text text-anchor="start" x="1689.47" y="-901.4" font-family="Arial" font-size="14.00" fill="#666666">[bigint]</text>
<text text-anchor="start" x="1730.71" y="-901.4" font-family="Arial" font-size="14.00"> FK a ReporteBuro, indica el reporte de buro de credito consultado para el socio al momento de la solicitud.</text>
<polygon fill="none" stroke="black" points="1587.52,-858.4 1587.52,-889.2 2765.7,-889.2 2765.7,-858.4 1587.52,-858.4"/>
<text text-anchor="start" x="1594.52" y="-870.6" font-family="Arial" font-size="14.00">IdSituacion </text>
<text text-anchor="start" x="1667.68" y="-870.6" font-family="Arial" font-size="14.00" fill="#666666">[bigint]</text>
<text text-anchor="start" x="1708.93" y="-870.6" font-family="Arial" font-size="14.00"> FK a SituacionFinanciera, indica la situacion financiera declarada/verificada del socio al momento de la solicitud.</text>
<polygon fill="none" stroke="black" points="1587.52,-827.6 1587.52,-858.4 2765.7,-858.4 2765.7,-827.6 1587.52,-827.6"/>
<text text-anchor="start" x="1594.52" y="-839.8" font-family="Arial" font-size="14.00">IdSolicitud </text>
<text text-anchor="start" x="1663" y="-839.8" font-family="Arial" font-size="14.00" fill="#666666">[bigint]</text>
<polygon fill="none" stroke="black" points="1587.52,-796.8 1587.52,-827.6 2765.7,-827.6 2765.7,-796.8 1587.52,-796.8"/>
<text text-anchor="start" x="1594.52" y="-809" font-family="Arial" font-size="14.00">IdTipoCredito </text>
<text text-anchor="start" x="1682.45" y="-809" font-family="Arial" font-size="14.00" fill="#666666">[int]</text>
<text text-anchor="start" x="1705.02" y="-809" font-family="Arial" font-size="14.00"> FK a TipoCredito, indica el tipo de credito solicitado.</text>
<polygon fill="none" stroke="black" points="1587.52,-766 1587.52,-796.8 2765.7,-796.8 2765.7,-766 1587.52,-766"/>
<text text-anchor="start" x="1594.52" y="-778.2" font-family="Arial" font-size="14.00">IdTransaccionDesembolso </text>
<text text-anchor="start" x="1764.16" y="-778.2" font-family="Arial" font-size="14.00" fill="#666666">[bigint]</text>
<text text-anchor="start" x="1805.4" y="-778.2" font-family="Arial" font-size="14.00"> FK a Transaccion, indica la transaccion de desembolso del credito aprobado (null si no aplica).</text>
<polygon fill="none" stroke="black" points="1587.52,-735.2 1587.52,-766 2765.7,-766 2765.7,-735.2 1587.52,-735.2"/>
<text text-anchor="start" x="1594.52" y="-747.4" font-family="Arial" font-size="14.00">Monto </text>
<text text-anchor="start" x="1637.32" y="-747.4" font-family="Arial" font-size="14.00" fill="#666666">[decimal]</text>
<text text-anchor="start" x="1693.34" y="-747.4" font-family="Arial" font-size="14.00"> Monto solicitado en la solicitud de credito.</text>
<polygon fill="none" stroke="black" points="1587.52,-704.4 1587.52,-735.2 2765.7,-735.2 2765.7,-704.4 1587.52,-704.4"/>
<text text-anchor="start" x="1594.52" y="-716.6" font-family="Arial" font-size="14.00">NumeroSolicitud </text>
<text text-anchor="start" x="1701.12" y="-716.6" font-family="Arial" font-size="14.00" fill="#666666">[varchar(20)]</text>
<text text-anchor="start" x="1780.48" y="-716.6" font-family="Arial" font-size="14.00"> Numero unico de solicitud de credito asignado por la cooperativa.</text>
<polygon fill="none" stroke="black" points="1587.52,-673.6 1587.52,-704.4 2765.7,-704.4 2765.7,-673.6 1587.52,-673.6"/>
<text text-anchor="start" x="1594.52" y="-685.8" font-family="Arial" font-size="14.00">PlazoMeses </text>
<text text-anchor="start" x="1674.67" y="-685.8" font-family="Arial" font-size="14.00" fill="#666666">[smallint]</text>
<text text-anchor="start" x="1729.9" y="-685.8" font-family="Arial" font-size="14.00"> Plazo solicitado en meses para el credito.</text>
<polygon fill="none" stroke="black" points="1587.52,-642.8 1587.52,-673.6 2765.7,-673.6 2765.7,-642.8 1587.52,-642.8"/>
<text text-anchor="start" x="1594.52" y="-655" font-family="Arial" font-size="14.00">SistemaAmortizacion </text>
<text text-anchor="start" x="1729.9" y="-655" font-family="Arial" font-size="14.00" fill="#666666">[varchar(10)]</text>
<text text-anchor="start" x="1809.26" y="-655" font-family="Arial" font-size="14.00"> Sistema de amortizacion solicitado para el credito (ej:&#39; Francés o Alemán&#39;).</text>
<polygon fill="none" stroke="black" points="1587.52,-612 1587.52,-642.8 2765.7,-642.8 2765.7,-612 1587.52,-612"/>
<text text-anchor="start" x="1594.52" y="-624.2" font-family="Arial" font-size="14.00">TasaNominalAnual </text>
<text text-anchor="start" x="1716.69" y="-624.2" font-family="Arial" font-size="14.00" fill="#666666">[decimal]</text>
<text text-anchor="start" x="1772.71" y="-624.2" font-family="Arial" font-size="14.00"> Tasa nominal anual de interes solicitada para el credito (Verificar validez o usar una FK a TasaInteres).</text>
<polygon fill="none" stroke="black" points="1587.52,-581.2 1587.52,-612 2765.7,-612 2765.7,-581.2 1587.52,-581.2"/>
<text text-anchor="start" x="1594.52" y="-593.4" font-family="Arial" font-size="14.00">TipoResolucion </text>
<text text-anchor="start" x="1694.91" y="-593.4" font-family="Arial" font-size="14.00" fill="#666666">[varchar(15)]</text>
<text text-anchor="start" x="1774.27" y="-593.4" font-family="Arial" font-size="14.00"> Tipo de resolucion tomada sobre la solicitud de credito (ej:&#39; Manual o Automatica&#39;).</text>
<polygon fill="none" stroke="black" points="1587.52,-550.4 1587.52,-581.2 2765.7,-581.2 2765.7,-550.4 1587.52,-550.4"/>
<text text-anchor="start" x="1594.52" y="-562.6" font-family="Arial" font-size="14.00">TotalImpuestos </text>
<text text-anchor="start" x="1694.12" y="-562.6" font-family="Arial" font-size="14.00" fill="#666666">[decimal]</text>
<text text-anchor="start" x="1750.14" y="-562.6" font-family="Arial" font-size="14.00"> Total de impuestos calculados para el credito solicitado, usada en reportes y logs.</text>
<polygon fill="none" stroke="black" points="1587.52,-519.6 1587.52,-550.4 2765.7,-550.4 2765.7,-519.6 1587.52,-519.6"/>
<text text-anchor="start" x="1594.52" y="-531.8" font-family="Arial" font-size="14.00">TotalIntereses </text>
<text text-anchor="start" x="1687.12" y="-531.8" font-family="Arial" font-size="14.00" fill="#666666">[decimal]</text>
<text text-anchor="start" x="1743.14" y="-531.8" font-family="Arial" font-size="14.00"> Total de intereses calculados para el credito solicitado, usada en reportes y logs.</text>
<polygon fill="none" stroke="black" points="1587.52,-488.8 1587.52,-519.6 2765.7,-519.6 2765.7,-488.8 1587.52,-488.8"/>
<text text-anchor="start" x="1594.52" y="-501" font-family="Arial" font-size="14.00">TotalSeguros </text>
<text text-anchor="start" x="1681.68" y="-501" font-family="Arial" font-size="14.00" fill="#666666">[decimal]</text>
<text text-anchor="start" x="1737.7" y="-501" font-family="Arial" font-size="14.00"> Total de seguros calculados para el credito solicitado, usada en reportes y logs.</text>
</g>
<!-- Credito.CreditoSolicitud&#45;&gt;Credito.TipoCredito -->
<g id="edge4" class="edge">
<title>Credito.CreditoSolicitud:IdTipoCredito&#45;&gt;Credito.TipoCredito:IdTipoCredito</title>
<path fill="none" stroke="black" d="M2776.59,-810.56C2845.49,-786.54 2815.26,-505.79 2765.7,-445.6 2646.4,-300.7 2470.89,-508.2 2351.47,-363.4 2287.05,-285.29 2249.22,-135.6 2350.47,-135.6"/>
<polygon fill="black" stroke="black" points="2776.9,-810.51 2766.3,-807.71 2771.64,-811.38 2767.36,-812.09 2767.36,-812.09 2767.36,-812.09 2771.64,-811.38 2767.77,-816.58 2776.9,-810.51"/>
</g>
<!-- Credito.TasaInteres -->
<g id="node6" class="node">
<title>Credito.TasaInteres</title>
<polygon fill="#efefef" stroke="none" points="2869.91,-1089.4 2869.91,-1135.4 3619.31,-1135.4 3619.31,-1089.4 2869.91,-1089.4"/>
<polygon fill="none" stroke="black" points="2869.91,-1089.4 2869.91,-1135.4 3619.31,-1135.4 3619.31,-1089.4 2869.91,-1089.4"/>
<text text-anchor="start" x="3109.32" y="-1113.2" font-family="Arial Bold" font-size="18.00">Credito.TasaInteres</text>
<text text-anchor="start" x="3250.76" y="-1113.2" font-family="Arial" font-size="14.00">    </text>
<text text-anchor="start" x="3281.87" y="-1113.2" font-family="Arial" font-size="14.00" fill="#666666">[BASIC TABLE]</text>
<text text-anchor="start" x="3078.84" y="-1098.8" font-family="Arial" font-size="14.00" fill="#333333">Tasa de interes vigente aplicable a un tipo de credito.</text>
<polygon fill="none" stroke="black" points="2869.91,-1058.6 2869.91,-1089.4 3619.31,-1089.4 3619.31,-1058.6 2869.91,-1058.6"/>
<text text-anchor="start" x="2876.91" y="-1070.8" font-family="Arial" font-size="14.00">IdTasaInteres </text>
<text text-anchor="start" x="2966.4" y="-1070.8" font-family="Arial" font-size="14.00" fill="#666666">[int]</text>
<polygon fill="none" stroke="black" points="2869.91,-1027.8 2869.91,-1058.6 3619.31,-1058.6 3619.31,-1027.8 2869.91,-1027.8"/>
<text text-anchor="start" x="2876.91" y="-1040" font-family="Arial" font-size="14.00">IdTipoCredito </text>
<text text-anchor="start" x="2964.84" y="-1040" font-family="Arial" font-size="14.00" fill="#666666">[int]</text>
<polygon fill="none" stroke="black" points="2869.91,-997 2869.91,-1027.8 3619.31,-1027.8 3619.31,-997 2869.91,-997"/>
<text text-anchor="start" x="2876.91" y="-1009.2" font-family="Arial" font-size="14.00">PlazoMaximoMeses </text>
<text text-anchor="start" x="3006.06" y="-1009.2" font-family="Arial" font-size="14.00" fill="#666666">[smallint]</text>
<text text-anchor="start" x="3061.3" y="-1009.2" font-family="Arial" font-size="14.00"> Plazo maximo en meses para el cual aplica la tasa de interes.</text>
<polygon fill="none" stroke="black" points="2869.91,-966.2 2869.91,-997 3619.31,-997 3619.31,-966.2 2869.91,-966.2"/>
<text text-anchor="start" x="2876.91" y="-978.4" font-family="Arial" font-size="14.00">RecargoMoraSobreTasa </text>
<text text-anchor="start" x="3034.1" y="-978.4" font-family="Arial" font-size="14.00" fill="#666666">[decimal]</text>
<text text-anchor="start" x="3090.12" y="-978.4" font-family="Arial" font-size="14.00"> Recargo de mora sobre la tasa nominal anual de interes aplicable al tipo de credito.</text>
<polygon fill="none" stroke="black" points="2869.91,-935.4 2869.91,-966.2 3619.31,-966.2 3619.31,-935.4 2869.91,-935.4"/>
<text text-anchor="start" x="2876.91" y="-947.6" font-family="Arial" font-size="14.00">TasaNominalAnual </text>
<text text-anchor="start" x="2999.08" y="-947.6" font-family="Arial" font-size="14.00" fill="#666666">[decimal]</text>
<text text-anchor="start" x="3055.1" y="-947.6" font-family="Arial" font-size="14.00"> Tasa nominal anual de interes aplicable al tipo de credito.</text>
<polygon fill="none" stroke="black" points="2869.91,-904.6 2869.91,-935.4 3619.31,-935.4 3619.31,-904.6 2869.91,-904.6"/>
<text text-anchor="start" x="2876.91" y="-916.8" font-family="Arial" font-size="14.00">VigenciaDesde </text>
<text text-anchor="start" x="2974.97" y="-916.8" font-family="Arial" font-size="14.00" fill="#666666">[date]</text>
<text text-anchor="start" x="3010" y="-916.8" font-family="Arial" font-size="14.00"> Fecha desde la cual la tasa de interes es vigente.</text>
<polygon fill="none" stroke="black" points="2869.91,-873.8 2869.91,-904.6 3619.31,-904.6 3619.31,-873.8 2869.91,-873.8"/>
<text text-anchor="start" x="2876.91" y="-886" font-family="Arial" font-size="14.00">VigenciaHasta </text>
<text text-anchor="start" x="2971.08" y="-886" font-family="Arial" font-size="14.00" fill="#666666">[date]</text>
<text text-anchor="start" x="3006.1" y="-886" font-family="Arial" font-size="14.00"> Fecha hasta la cual la tasa de interes es vigente.</text>
</g>
<!-- Credito.TasaInteres&#45;&gt;Credito.TipoCredito -->
<g id="edge5" class="edge">
<title>Credito.TasaInteres:IdTipoCredito&#45;&gt;Credito.TipoCredito:IdTipoCredito</title>
<path fill="none" stroke="black" d="M2858.61,-1042.66C2780.29,-1033.86 2851.48,-919.51 2869.91,-830.6 2935.19,-515.77 3392.29,-135.6 3070.76,-135.6"/>
<polygon fill="black" stroke="black" points="2858.59,-1042.66 2868.34,-1047.68 2863.92,-1042.94 2868.24,-1043.16 2868.24,-1043.16 2868.24,-1043.16 2863.92,-1042.94 2868.81,-1038.69 2858.59,-1042.66"/>
</g>
<!-- Credito.TipoCreditoImpuesto -->
<g id="node7" class="node">
<title>Credito.TipoCreditoImpuesto</title>
<polygon fill="#efefef" stroke="none" points="3723.44,-1043.2 3723.44,-1089.2 4353.78,-1089.2 4353.78,-1043.2 3723.44,-1043.2"/>
<polygon fill="none" stroke="black" points="3723.44,-1043.2 3723.44,-1089.2 4353.78,-1089.2 4353.78,-1043.2 3723.44,-1043.2"/>
<text text-anchor="start" x="3867.3" y="-1067" font-family="Arial Bold" font-size="18.00">Credito.TipoCreditoImpuesto</text>
<text text-anchor="start" x="4080.77" y="-1067" font-family="Arial" font-size="14.00">    </text>
<text text-anchor="start" x="4111.89" y="-1067" font-family="Arial" font-size="14.00" fill="#666666">[BASIC TABLE]</text>
<text text-anchor="start" x="3897.36" y="-1052.6" font-family="Arial" font-size="14.00" fill="#333333">Impuestos habilitados para un tipo de credito.</text>
<polygon fill="none" stroke="black" points="3723.44,-1012.4 3723.44,-1043.2 4353.78,-1043.2 4353.78,-1012.4 3723.44,-1012.4"/>
<text text-anchor="start" x="3730.44" y="-1024.6" font-family="Arial" font-size="14.00">Estado </text>
<text text-anchor="start" x="3777.92" y="-1024.6" font-family="Arial" font-size="14.00" fill="#666666">[char]</text>
<text text-anchor="start" x="3812.93" y="-1024.6" font-family="Arial" font-size="14.00"> Estado de la asociacion entre el tipo de credito y el impuesto que incluye si esta (I/A).</text>
<polygon fill="none" stroke="black" points="3723.44,-981.6 3723.44,-1012.4 4353.78,-1012.4 4353.78,-981.6 3723.44,-981.6"/>
<text text-anchor="start" x="3730.44" y="-993.8" font-family="Arial" font-size="14.00">IdImpuesto </text>
<text text-anchor="start" x="3803.6" y="-993.8" font-family="Arial" font-size="14.00" fill="#666666">[int]</text>
<text text-anchor="start" x="3826.16" y="-993.8" font-family="Arial" font-size="14.00"> FK a Impuesto, indica el impuesto habilitado para el tipo de credito.</text>
<polygon fill="none" stroke="black" points="3723.44,-950.8 3723.44,-981.6 4353.78,-981.6 4353.78,-950.8 3723.44,-950.8"/>
<text text-anchor="start" x="3730.44" y="-963" font-family="Arial" font-size="14.00">IdTipoCredito </text>
<text text-anchor="start" x="3818.38" y="-963" font-family="Arial" font-size="14.00" fill="#666666">[int]</text>
<text text-anchor="start" x="3840.94" y="-963" font-family="Arial" font-size="14.00"> FK a TipoCredito, indica el tipo de credito al que se asocia el impuesto.</text>
<polygon fill="none" stroke="black" points="3723.44,-920 3723.44,-950.8 4353.78,-950.8 4353.78,-920 3723.44,-920"/>
<text text-anchor="start" x="3730.44" y="-932.2" font-family="Arial" font-size="14.00">IdTipoCreditoImpuesto </text>
<text text-anchor="start" x="3875.96" y="-932.2" font-family="Arial" font-size="14.00" fill="#666666">[int]</text>
</g>
<!-- Credito.TipoCreditoImpuesto&#45;&gt;Credito.TipoCredito -->
<g id="edge6" class="edge">
<title>Credito.TipoCreditoImpuesto:IdTipoCredito&#45;&gt;Credito.TipoCredito:IdTipoCredito</title>
<path fill="none" stroke="black" d="M3712.26,-964.98C3614.18,-940 3734.81,-538.8 3671.61,-445.6 3502.96,-196.9 3371.25,-135.6 3070.76,-135.6"/>
<polygon fill="black" stroke="black" points="3712.18,-964.97 3721.58,-970.63 3717.48,-965.61 3721.78,-966.12 3721.78,-966.12 3721.78,-966.12 3717.48,-965.61 3722.65,-961.69 3712.18,-964.97"/>
</g>
</g>
</svg>
