<?xml version="1.0" encoding="UTF-8" standalone="no"?>
<!DOCTYPE svg PUBLIC "-//W3C//DTD SVG 1.1//EN"
 "http://www.w3.org/Graphics/SVG/1.1/DTD/svg11.dtd">
<!-- Generated by graphviz version 12.1.2 (20240928.0832)
 -->
<!-- Title: sys.database_firewall_rules Pages: 1 -->
<svg width="388pt" height="321pt"
 viewBox="0.00 0.00 387.51 320.80" xmlns="http://www.w3.org/2000/svg" xmlns:xlink="http://www.w3.org/1999/xlink">
<g id="graph0" class="graph" transform="scale(1 1) rotate(0) translate(4 316.8)">
<title>sys.database_firewall_rules</title>
<polygon fill="white" stroke="none" points="-4,4 -4,-316.8 383.51,-316.8 383.51,4 -4,4"/>
<!-- sys.database_firewall_rules -->
<g id="node1" class="node">
<title>sys.database_firewall_rules</title>
<polygon fill="#efefef" stroke="none" points="46.2,-231 46.2,-266.6 333.31,-266.6 333.31,-231 46.2,-231"/>
<polygon fill="none" stroke="black" points="46.2,-231 46.2,-266.6 333.31,-266.6 333.31,-231 46.2,-231"/>
<text text-anchor="start" x="53.2" y="-244.4" font-family="Arial Bold" font-size="18.00">sys.database_firewall_rules</text>
<text text-anchor="start" x="251.63" y="-244.4" font-family="Arial" font-size="14.00">    </text>
<text text-anchor="start" x="282.75" y="-244.4" font-family="Arial" font-size="14.00" fill="#666666">[VIEW]</text>
<polygon fill="none" stroke="black" points="46.2,-200.2 46.2,-231 333.31,-231 333.31,-200.2 46.2,-200.2"/>
<text text-anchor="start" x="53.2" y="-212.4" font-family="Arial" font-size="14.00">create_date </text>
<text text-anchor="start" x="131.03" y="-212.4" font-family="Arial" font-size="14.00" fill="#666666">[datetime]</text>
<polygon fill="none" stroke="black" points="46.2,-169.4 46.2,-200.2 333.31,-200.2 333.31,-169.4 46.2,-169.4"/>
<text text-anchor="start" x="53.2" y="-181.6" font-family="Arial" font-size="14.00">end_ip_address </text>
<text text-anchor="start" x="156.72" y="-181.6" font-family="Arial" font-size="14.00" fill="#666666">[varchar(45)]</text>
<polygon fill="none" stroke="black" points="46.2,-138.6 46.2,-169.4 333.31,-169.4 333.31,-138.6 46.2,-138.6"/>
<text text-anchor="start" x="53.2" y="-150.8" font-family="Arial" font-size="14.00">id </text>
<text text-anchor="start" x="67.99" y="-150.8" font-family="Arial" font-size="14.00" fill="#666666">[int]</text>
<polygon fill="none" stroke="black" points="46.2,-107.8 46.2,-138.6 333.31,-138.6 333.31,-107.8 46.2,-107.8"/>
<text text-anchor="start" x="53.2" y="-120" font-family="Arial" font-size="14.00">modify_date </text>
<text text-anchor="start" x="133.36" y="-120" font-family="Arial" font-size="14.00" fill="#666666">[datetime]</text>
<polygon fill="none" stroke="black" points="46.2,-77 46.2,-107.8 333.31,-107.8 333.31,-77 46.2,-77"/>
<text text-anchor="start" x="53.2" y="-89.2" font-family="Arial" font-size="14.00">name </text>
<text text-anchor="start" x="92.11" y="-89.2" font-family="Arial" font-size="14.00" fill="#666666">[nvarchar(128)]</text>
<polygon fill="none" stroke="black" points="46.2,-46.2 46.2,-77 333.31,-77 333.31,-46.2 46.2,-46.2"/>
<text text-anchor="start" x="53.2" y="-58.4" font-family="Arial" font-size="14.00">start_ip_address </text>
<text text-anchor="start" x="160.59" y="-58.4" font-family="Arial" font-size="14.00" fill="#666666">[varchar(45)]</text>
<polygon fill="none" stroke="black" stroke-width="3" points="44.7,-44.7 44.7,-268.1 334.81,-268.1 334.81,-44.7 44.7,-44.7"/>
</g>
</g>
</svg>
