<?xml version="1.0" encoding="UTF-8" standalone="no"?>
<!DOCTYPE svg PUBLIC "-//W3C//DTD SVG 1.1//EN"
 "http://www.w3.org/Graphics/SVG/1.1/DTD/svg11.dtd">
<!-- Generated by graphviz version 12.1.2 (20240928.0832)
 -->
<!-- Title: Catalogo Pages: 1 -->
<svg width="3748pt" height="1017pt"
 viewBox="0.00 0.00 3748.04 1017.20" xmlns="http://www.w3.org/2000/svg" xmlns:xlink="http://www.w3.org/1999/xlink">
<g id="graph0" class="graph" transform="scale(1 1) rotate(0) translate(4 1013.2)">
<title>Catalogo</title>
<polygon fill="white" stroke="none" points="-4,4 -4,-1013.2 3744.04,-1013.2 3744.04,4 -4,4"/>
<!-- Catalogo.Canal -->
<g id="node1" class="node">
<title>Catalogo.Canal</title>
<polygon fill="#efefef" stroke="none" points="948.82,-351.2 948.82,-397.2 1723.16,-397.2 1723.16,-351.2 948.82,-351.2"/>
<polygon fill="none" stroke="black" points="948.82,-351.2 948.82,-397.2 1723.16,-397.2 1723.16,-351.2 948.82,-351.2"/>
<text text-anchor="start" x="1215.68" y="-375" font-family="Arial Bold" font-size="18.00">Catalogo.Canal</text>
<text text-anchor="start" x="1327.15" y="-375" font-family="Arial" font-size="14.00">    </text>
<text text-anchor="start" x="1358.27" y="-375" font-family="Arial" font-size="14.00" fill="#666666">[BASIC TABLE]</text>
<text text-anchor="start" x="955.82" y="-360.6" font-family="Arial" font-size="14.00" fill="#333333">Canal de atencion por el que se origina una operacion o transaccion (ventanilla, banca movil, web, cajero automatico, etc).</text>
<polygon fill="none" stroke="black" points="948.82,-320.4 948.82,-351.2 1723.16,-351.2 1723.16,-320.4 948.82,-320.4"/>
<text text-anchor="start" x="955.82" y="-332.6" font-family="Arial" font-size="14.00">CodigoCanal </text>
<text text-anchor="start" x="1040.66" y="-332.6" font-family="Arial" font-size="14.00" fill="#666666">[varchar(10)]</text>
<text text-anchor="start" x="1120.01" y="-332.6" font-family="Arial" font-size="14.00"> Codigo unico del canal, usado en transacciones y operaciones del core.</text>
<polygon fill="none" stroke="black" points="948.82,-289.6 948.82,-320.4 1723.16,-320.4 1723.16,-289.6 948.82,-289.6"/>
<text text-anchor="start" x="955.82" y="-301.8" font-family="Arial" font-size="14.00">Descripcion </text>
<text text-anchor="start" x="1032.85" y="-301.8" font-family="Arial" font-size="14.00" fill="#666666">[varchar(200)]</text>
<text text-anchor="start" x="1119.99" y="-301.8" font-family="Arial" font-size="14.00"> Descripcion del canal, usado en reportes y logs.</text>
<polygon fill="none" stroke="black" points="948.82,-258.8 948.82,-289.6 1723.16,-289.6 1723.16,-258.8 948.82,-258.8"/>
<text text-anchor="start" x="955.82" y="-271" font-family="Arial" font-size="14.00">Estado </text>
<text text-anchor="start" x="1003.3" y="-271" font-family="Arial" font-size="14.00" fill="#666666">[char]</text>
<text text-anchor="start" x="1038.31" y="-271" font-family="Arial" font-size="14.00"> Indica si el canal esta activo o inactivo (true/false).</text>
<polygon fill="none" stroke="black" points="948.82,-228 948.82,-258.8 1723.16,-258.8 1723.16,-228 948.82,-228"/>
<text text-anchor="start" x="955.82" y="-240.2" font-family="Arial" font-size="14.00">FechaCreacion </text>
<text text-anchor="start" x="1054.65" y="-240.2" font-family="Arial" font-size="14.00" fill="#666666">[datetime2]</text>
<text text-anchor="start" x="1123.91" y="-240.2" font-family="Arial" font-size="14.00"> Fecha de creacion del canal, usado en reportes y logs.</text>
<polygon fill="none" stroke="black" points="948.82,-197.2 948.82,-228 1723.16,-228 1723.16,-197.2 948.82,-197.2"/>
<text text-anchor="start" x="955.82" y="-209.4" font-family="Arial" font-size="14.00">IdCanal </text>
<text text-anchor="start" x="1007.97" y="-209.4" font-family="Arial" font-size="14.00" fill="#666666">[int]</text>
<polygon fill="none" stroke="black" points="948.82,-166.4 948.82,-197.2 1723.16,-197.2 1723.16,-166.4 948.82,-166.4"/>
<text text-anchor="start" x="955.82" y="-178.6" font-family="Arial" font-size="14.00">NombreCanal </text>
<text text-anchor="start" x="1046.08" y="-178.6" font-family="Arial" font-size="14.00" fill="#666666">[varchar(50)]</text>
<text text-anchor="start" x="1125.44" y="-178.6" font-family="Arial" font-size="14.00"> Nombre descriptivo del canal, usado en reportes y logs.</text>
<polygon fill="none" stroke="black" points="948.82,-135.6 948.82,-166.4 1723.16,-166.4 1723.16,-135.6 948.82,-135.6"/>
<text text-anchor="start" x="955.82" y="-147.8" font-family="Arial" font-size="14.00">RequiereJornadaCaja </text>
<text text-anchor="start" x="1095.91" y="-147.8" font-family="Arial" font-size="14.00" fill="#666666">[bit]</text>
<text text-anchor="start" x="1118.48" y="-147.8" font-family="Arial" font-size="14.00"> Indica si el canal requiere una jornada de caja abierta para operar (true/false).</text>
<polygon fill="none" stroke="black" points="948.82,-104.8 948.82,-135.6 1723.16,-135.6 1723.16,-104.8 948.82,-104.8"/>
<text text-anchor="start" x="955.82" y="-117" font-family="Arial" font-size="14.00">RequierePin </text>
<text text-anchor="start" x="1036.76" y="-117" font-family="Arial" font-size="14.00" fill="#666666">[bit]</text>
<text text-anchor="start" x="1059.32" y="-117" font-family="Arial" font-size="14.00"> Indica si el canal requiere PIN para operar (true/false).</text>
<polygon fill="none" stroke="black" points="948.82,-74 948.82,-104.8 1723.16,-104.8 1723.16,-74 948.82,-74"/>
<text text-anchor="start" x="955.82" y="-86.2" font-family="Arial" font-size="14.00">RequiereTarjeta </text>
<text text-anchor="start" x="1060.1" y="-86.2" font-family="Arial" font-size="14.00" fill="#666666">[bit]</text>
<text text-anchor="start" x="1082.66" y="-86.2" font-family="Arial" font-size="14.00"> Indica si el canal requiere tarjeta para operar (true/false).</text>
<polygon fill="none" stroke="black" points="948.82,-43.2 948.82,-74 1723.16,-74 1723.16,-43.2 948.82,-43.2"/>
<text text-anchor="start" x="955.82" y="-55.4" font-family="Arial" font-size="14.00">RequiereTerminal </text>
<text text-anchor="start" x="1070.98" y="-55.4" font-family="Arial" font-size="14.00" fill="#666666">[bit]</text>
<text text-anchor="start" x="1093.55" y="-55.4" font-family="Arial" font-size="14.00"> Indica si el canal requiere un terminal o dispositivo fisico para operar (true/false).</text>
</g>
<!-- Catalogo.CodigosRespuesta -->
<g id="node2" class="node">
<title>Catalogo.CodigosRespuesta</title>
<polygon fill="#efefef" stroke="none" points="2105.31,-781.4 2105.31,-827.4 2844.67,-827.4 2844.67,-781.4 2105.31,-781.4"/>
<polygon fill="none" stroke="black" points="2105.31,-781.4 2105.31,-827.4 2844.67,-827.4 2844.67,-781.4 2105.31,-781.4"/>
<text text-anchor="start" x="2309.17" y="-805.2" font-family="Arial Bold" font-size="18.00">Catalogo.CodigosRespuesta</text>
<text text-anchor="start" x="2511.65" y="-805.2" font-family="Arial" font-size="14.00">    </text>
<text text-anchor="start" x="2542.77" y="-805.2" font-family="Arial" font-size="14.00" fill="#666666">[BASIC TABLE]</text>
<text text-anchor="start" x="2181.97" y="-790.8" font-family="Arial" font-size="14.00" fill="#333333">Catalogo de codigos de respuesta/resultado usados por transacciones y operaciones del core.</text>
<polygon fill="none" stroke="black" points="2105.31,-750.6 2105.31,-781.4 2844.67,-781.4 2844.67,-750.6 2105.31,-750.6"/>
<text text-anchor="start" x="2112.31" y="-762.8" font-family="Arial" font-size="14.00">Categoria </text>
<text text-anchor="start" x="2176.9" y="-762.8" font-family="Arial" font-size="14.00" fill="#666666">[varchar(20)]</text>
<text text-anchor="start" x="2256.26" y="-762.8" font-family="Arial" font-size="14.00"> Categoria del codigo de respuesta, usado en reportes y logs.</text>
<polygon fill="none" stroke="black" points="2105.31,-719.8 2105.31,-750.6 2844.67,-750.6 2844.67,-719.8 2105.31,-719.8"/>
<text text-anchor="start" x="2112.31" y="-732" font-family="Arial" font-size="14.00">CodigoRespuesta </text>
<text text-anchor="start" x="2227.5" y="-732" font-family="Arial" font-size="14.00" fill="#666666">[char]</text>
<polygon fill="none" stroke="black" points="2105.31,-689 2105.31,-719.8 2844.67,-719.8 2844.67,-689 2105.31,-689"/>
<text text-anchor="start" x="2112.31" y="-701.2" font-family="Arial" font-size="14.00">Descripcion </text>
<text text-anchor="start" x="2189.34" y="-701.2" font-family="Arial" font-size="14.00" fill="#666666">[varchar(100)]</text>
<text text-anchor="start" x="2276.48" y="-701.2" font-family="Arial" font-size="14.00"> Descripcion del codigo de respuesta, usado en reportes y logs.</text>
<polygon fill="none" stroke="black" points="2105.31,-658.2 2105.31,-689 2844.67,-689 2844.67,-658.2 2105.31,-658.2"/>
<text text-anchor="start" x="2112.31" y="-670.4" font-family="Arial" font-size="14.00">GeneraBloqueo </text>
<text text-anchor="start" x="2214.28" y="-670.4" font-family="Arial" font-size="14.00" fill="#666666">[bit]</text>
<text text-anchor="start" x="2236.84" y="-670.4" font-family="Arial" font-size="14.00"> Indica si el codigo de respuesta genera bloqueo de la cuenta, tarjeta u otro producto (true/false).</text>
</g>
<!-- Catalogo.Comisiones -->
<g id="node3" class="node">
<title>Catalogo.Comisiones</title>
<polygon fill="#efefef" stroke="none" points="43.2,-920 43.2,-966 934.78,-966 934.78,-920 43.2,-920"/>
<polygon fill="none" stroke="black" points="43.2,-920 43.2,-966 934.78,-966 934.78,-920 43.2,-920"/>
<text text-anchor="start" x="347.17" y="-943.8" font-family="Arial Bold" font-size="18.00">Catalogo.Comisiones</text>
<text text-anchor="start" x="501.66" y="-943.8" font-family="Arial" font-size="14.00">    </text>
<text text-anchor="start" x="532.78" y="-943.8" font-family="Arial" font-size="14.00" fill="#666666">[BASIC TABLE]</text>
<text text-anchor="start" x="266.8" y="-929.4" font-family="Arial" font-size="14.00" fill="#333333">Catalogo de comisiones aplicables a productos, canales u operaciones.</text>
<polygon fill="none" stroke="black" points="43.2,-889.2 43.2,-920 934.78,-920 934.78,-889.2 43.2,-889.2"/>
<text text-anchor="start" x="50.2" y="-901.4" font-family="Arial" font-size="14.00">CodigoComision </text>
<text text-anchor="start" x="156.81" y="-901.4" font-family="Arial" font-size="14.00" fill="#666666">[varchar(10)]</text>
<text text-anchor="start" x="236.16" y="-901.4" font-family="Arial" font-size="14.00"> Codigo unico de la comision, usado en transacciones y operaciones del core.</text>
<polygon fill="none" stroke="black" points="43.2,-858.4 43.2,-889.2 934.78,-889.2 934.78,-858.4 43.2,-858.4"/>
<text text-anchor="start" x="50.2" y="-870.6" font-family="Arial" font-size="14.00">CodigoMoneda </text>
<text text-anchor="start" x="149.05" y="-870.6" font-family="Arial" font-size="14.00" fill="#666666">[smallint]</text>
<text text-anchor="start" x="204.28" y="-870.6" font-family="Arial" font-size="14.00"> Codigo de la moneda en la que se expresa la comision.</text>
<polygon fill="none" stroke="black" points="43.2,-827.6 43.2,-858.4 934.78,-858.4 934.78,-827.6 43.2,-827.6"/>
<text text-anchor="start" x="50.2" y="-839.8" font-family="Arial" font-size="14.00">Descripcion </text>
<text text-anchor="start" x="127.23" y="-839.8" font-family="Arial" font-size="14.00" fill="#666666">[varchar(250)]</text>
<text text-anchor="start" x="214.37" y="-839.8" font-family="Arial" font-size="14.00"> Descripcion de la comision, usado en reportes y logs.</text>
<polygon fill="none" stroke="black" points="43.2,-796.8 43.2,-827.6 934.78,-827.6 934.78,-796.8 43.2,-796.8"/>
<text text-anchor="start" x="50.2" y="-809" font-family="Arial" font-size="14.00">Estado </text>
<text text-anchor="start" x="97.68" y="-809" font-family="Arial" font-size="14.00" fill="#666666">[char]</text>
<text text-anchor="start" x="132.69" y="-809" font-family="Arial" font-size="14.00"> Indica si la comision esta activa o inactiva (I/A).</text>
<polygon fill="none" stroke="black" points="43.2,-766 43.2,-796.8 934.78,-796.8 934.78,-766 43.2,-766"/>
<text text-anchor="start" x="50.2" y="-778.2" font-family="Arial" font-size="14.00">IdCanal </text>
<text text-anchor="start" x="102.34" y="-778.2" font-family="Arial" font-size="14.00" fill="#666666">[int]</text>
<text text-anchor="start" x="124.91" y="-778.2" font-family="Arial" font-size="14.00"> FK a Canal, indica el canal al que aplica la comision.</text>
<polygon fill="none" stroke="black" points="43.2,-735.2 43.2,-766 934.78,-766 934.78,-735.2 43.2,-735.2"/>
<text text-anchor="start" x="50.2" y="-747.4" font-family="Arial" font-size="14.00">IdComision </text>
<text text-anchor="start" x="124.12" y="-747.4" font-family="Arial" font-size="14.00" fill="#666666">[int]</text>
<polygon fill="none" stroke="black" points="43.2,-704.4 43.2,-735.2 934.78,-735.2 934.78,-704.4 43.2,-704.4"/>
<text text-anchor="start" x="50.2" y="-716.6" font-family="Arial" font-size="14.00">MontoMaximo </text>
<text text-anchor="start" x="142.01" y="-716.6" font-family="Arial" font-size="14.00" fill="#666666">[decimal]</text>
<text text-anchor="start" x="198.03" y="-716.6" font-family="Arial" font-size="14.00"> Monto maximo de la comision.</text>
<polygon fill="none" stroke="black" points="43.2,-673.6 43.2,-704.4 934.78,-704.4 934.78,-673.6 43.2,-673.6"/>
<text text-anchor="start" x="50.2" y="-685.8" font-family="Arial" font-size="14.00">MontoMinimo </text>
<text text-anchor="start" x="138.12" y="-685.8" font-family="Arial" font-size="14.00" fill="#666666">[decimal]</text>
<text text-anchor="start" x="194.14" y="-685.8" font-family="Arial" font-size="14.00"> Monto minimo de la comision.</text>
<polygon fill="none" stroke="black" points="43.2,-642.8 43.2,-673.6 934.78,-673.6 934.78,-642.8 43.2,-642.8"/>
<text text-anchor="start" x="50.2" y="-655" font-family="Arial" font-size="14.00">TipoCalculo </text>
<text text-anchor="start" x="128.01" y="-655" font-family="Arial" font-size="14.00" fill="#666666">[varchar(10)]</text>
<text text-anchor="start" x="207.37" y="-655" font-family="Arial" font-size="14.00"> Tipo de calculo de la comision (ej:&#39; Porcentaje o Fijo&#39;).</text>
<polygon fill="none" stroke="black" points="43.2,-612 43.2,-642.8 934.78,-642.8 934.78,-612 43.2,-612"/>
<text text-anchor="start" x="50.2" y="-624.2" font-family="Arial" font-size="14.00">TipoComision </text>
<text text-anchor="start" x="139.68" y="-624.2" font-family="Arial" font-size="14.00" fill="#666666">[varchar(30)]</text>
<text text-anchor="start" x="219.03" y="-624.2" font-family="Arial" font-size="14.00"> Tipo de comision (ej:&#39; Retiro, Transferencia, Reposicion Tarjeta, Emision Tarjeta, Mantenimiento, Consulta, Otro&#39;).</text>
<polygon fill="none" stroke="black" points="43.2,-581.2 43.2,-612 934.78,-612 934.78,-581.2 43.2,-581.2"/>
<text text-anchor="start" x="50.2" y="-593.4" font-family="Arial" font-size="14.00">Valor </text>
<text text-anchor="start" x="86.77" y="-593.4" font-family="Arial" font-size="14.00" fill="#666666">[decimal]</text>
<text text-anchor="start" x="142.79" y="-593.4" font-family="Arial" font-size="14.00"> Valor de la comision (ej:&#39; 0.5 para 0.5% o 1000 para 1000 unidades de la moneda&#39;).</text>
<polygon fill="none" stroke="black" points="43.2,-550.4 43.2,-581.2 934.78,-581.2 934.78,-550.4 43.2,-550.4"/>
<text text-anchor="start" x="50.2" y="-562.6" font-family="Arial" font-size="14.00">VigenciaDesde </text>
<text text-anchor="start" x="148.26" y="-562.6" font-family="Arial" font-size="14.00" fill="#666666">[date]</text>
<text text-anchor="start" x="183.29" y="-562.6" font-family="Arial" font-size="14.00"> Fecha desde la cual la comision esta vigente.</text>
<polygon fill="none" stroke="black" points="43.2,-519.6 43.2,-550.4 934.78,-550.4 934.78,-519.6 43.2,-519.6"/>
<text text-anchor="start" x="50.2" y="-531.8" font-family="Arial" font-size="14.00">VigenciaHasta </text>
<text text-anchor="start" x="144.37" y="-531.8" font-family="Arial" font-size="14.00" fill="#666666">[date]</text>
<text text-anchor="start" x="179.39" y="-531.8" font-family="Arial" font-size="14.00"> Fecha hasta la cual la comision esta vigente.</text>
</g>
<!-- Catalogo.Comisiones&#45;&gt;Catalogo.Canal -->
<g id="edge1" class="edge">
<title>Catalogo.Comisiones:IdCanal&#45;&gt;Catalogo.Canal:IdCanal</title>
<path fill="none" stroke="black" d="M945.96,-779.96C1048.41,-748.56 825.1,-212.6 947.82,-212.6"/>
<polygon fill="black" stroke="black" points="946.01,-779.96 935.48,-776.9 940.73,-780.7 936.44,-781.31 936.44,-781.31 936.44,-781.31 940.73,-780.7 936.74,-785.81 946.01,-779.96"/>
</g>
<!-- Catalogo.Monedas -->
<g id="node4" class="node">
<title>Catalogo.Monedas</title>
<polygon fill="#efefef" stroke="none" points="133.41,-274.2 133.41,-320.2 844.57,-320.2 844.57,-274.2 133.41,-274.2"/>
<polygon fill="none" stroke="black" points="133.41,-274.2 133.41,-320.2 844.57,-320.2 844.57,-274.2 133.41,-274.2"/>
<text text-anchor="start" x="356.68" y="-298" font-family="Arial Bold" font-size="18.00">Catalogo.Monedas</text>
<text text-anchor="start" x="492.15" y="-298" font-family="Arial" font-size="14.00">    </text>
<text text-anchor="start" x="523.27" y="-298" font-family="Arial" font-size="14.00" fill="#666666">[BASIC TABLE]</text>
<text text-anchor="start" x="242.3" y="-283.6" font-family="Arial" font-size="14.00" fill="#333333">Catalogo de monedas soportadas por el core (codigo ISO, simbolo, decimales).</text>
<polygon fill="none" stroke="black" points="133.41,-243.4 133.41,-274.2 844.57,-274.2 844.57,-243.4 133.41,-243.4"/>
<text text-anchor="start" x="140.41" y="-255.6" font-family="Arial" font-size="14.00">CodigoAlfabetico </text>
<text text-anchor="start" x="250.15" y="-255.6" font-family="Arial" font-size="14.00" fill="#666666">[char]</text>
<text text-anchor="start" x="285.16" y="-255.6" font-family="Arial" font-size="14.00"> Codigo alfabetico de la moneda como ISO 4217 (ej:&#39; USD, EUR, JPY&#39;).</text>
<polygon fill="none" stroke="black" points="133.41,-212.6 133.41,-243.4 844.57,-243.4 844.57,-212.6 133.41,-212.6"/>
<text text-anchor="start" x="140.41" y="-224.8" font-family="Arial" font-size="14.00">CodigoMoneda </text>
<text text-anchor="start" x="239.26" y="-224.8" font-family="Arial" font-size="14.00" fill="#666666">[smallint]</text>
<polygon fill="none" stroke="black" points="133.41,-181.8 133.41,-212.6 844.57,-212.6 844.57,-181.8 133.41,-181.8"/>
<text text-anchor="start" x="140.41" y="-194" font-family="Arial" font-size="14.00">Decimales </text>
<text text-anchor="start" x="209.65" y="-194" font-family="Arial" font-size="14.00" fill="#666666">[tinyint]</text>
<text text-anchor="start" x="254" y="-194" font-family="Arial" font-size="14.00"> Cantidad de decimales soportados por la moneda (ej:&#39; 2 para USD, 0 para JPY&#39;).</text>
<polygon fill="none" stroke="black" points="133.41,-151 133.41,-181.8 844.57,-181.8 844.57,-151 133.41,-151"/>
<text text-anchor="start" x="140.41" y="-163.2" font-family="Arial" font-size="14.00">Estado </text>
<text text-anchor="start" x="187.89" y="-163.2" font-family="Arial" font-size="14.00" fill="#666666">[char]</text>
<text text-anchor="start" x="222.9" y="-163.2" font-family="Arial" font-size="14.00"> Indica si la moneda esta activa o inactiva (I/A).</text>
<polygon fill="none" stroke="black" points="133.41,-120.2 133.41,-151 844.57,-151 844.57,-120.2 133.41,-120.2"/>
<text text-anchor="start" x="140.41" y="-132.4" font-family="Arial" font-size="14.00">NombreMoneda </text>
<text text-anchor="start" x="244.69" y="-132.4" font-family="Arial" font-size="14.00" fill="#666666">[varchar(50)]</text>
<text text-anchor="start" x="324.04" y="-132.4" font-family="Arial" font-size="14.00"> Nombre descriptivo de la moneda (ej:&#39; Dolar estadounidense, Euro, Yen japones&#39;).</text>
</g>
<!-- Catalogo.Comisiones&#45;&gt;Catalogo.Monedas -->
<g id="edge2" class="edge">
<title>Catalogo.Comisiones:CodigoMoneda&#45;&gt;Catalogo.Monedas:CodigoMoneda</title>
<path fill="none" stroke="black" d="M945.93,-872.24C1019.66,-848.25 968.23,-554.2 934.78,-476.4 925.61,-455.09 908.59,-460.49 896.99,-440.4 848.43,-356.28 942.69,-228 845.57,-228"/>
<polygon fill="black" stroke="black" points="945.99,-872.23 935.43,-869.3 940.72,-873.04 936.44,-873.7 936.44,-873.7 936.44,-873.7 940.72,-873.04 936.79,-878.2 945.99,-872.23"/>
</g>
<!-- Catalogo.Paises -->
<g id="node5" class="node">
<title>Catalogo.Paises</title>
<polygon fill="#efefef" stroke="none" points="2949.14,-796.8 2949.14,-842.8 3696.84,-842.8 3696.84,-796.8 2949.14,-796.8"/>
<polygon fill="none" stroke="black" points="2949.14,-796.8 2949.14,-842.8 3696.84,-842.8 3696.84,-796.8 2949.14,-796.8"/>
<text text-anchor="start" x="3201.17" y="-820.6" font-family="Arial Bold" font-size="18.00">Catalogo.Paises</text>
<text text-anchor="start" x="3315.66" y="-820.6" font-family="Arial" font-size="14.00">    </text>
<text text-anchor="start" x="3346.77" y="-820.6" font-family="Arial" font-size="14.00" fill="#666666">[BASIC TABLE]</text>
<text text-anchor="start" x="3133.09" y="-806.2" font-family="Arial" font-size="14.00" fill="#333333">Catalogo de paises usado en direcciones y datos de clientes.</text>
<polygon fill="none" stroke="black" points="2949.14,-766 2949.14,-796.8 3696.84,-796.8 3696.84,-766 2949.14,-766"/>
<text text-anchor="start" x="2956.14" y="-778.2" font-family="Arial" font-size="14.00">CodigoNumerico </text>
<text text-anchor="start" x="3064.3" y="-778.2" font-family="Arial" font-size="14.00" fill="#666666">[char]</text>
<text text-anchor="start" x="3099.31" y="-778.2" font-family="Arial" font-size="14.00"> Codigo numerico del pais como ISO 3166&#45;1 (ej:&#39; 840 para USA, 250 para Francia&#39;).</text>
<polygon fill="none" stroke="black" points="2949.14,-735.2 2949.14,-766 3696.84,-766 3696.84,-735.2 2949.14,-735.2"/>
<text text-anchor="start" x="2956.14" y="-747.4" font-family="Arial" font-size="14.00">CodigoPais </text>
<text text-anchor="start" x="3031.63" y="-747.4" font-family="Arial" font-size="14.00" fill="#666666">[char]</text>
<polygon fill="none" stroke="black" points="2949.14,-704.4 2949.14,-735.2 3696.84,-735.2 3696.84,-704.4 2949.14,-704.4"/>
<text text-anchor="start" x="2956.14" y="-716.6" font-family="Arial" font-size="14.00">Estado </text>
<text text-anchor="start" x="3003.61" y="-716.6" font-family="Arial" font-size="14.00" fill="#666666">[char]</text>
<text text-anchor="start" x="3038.63" y="-716.6" font-family="Arial" font-size="14.00"> Indica si el pais esta activo o inactivo (I/A).</text>
<polygon fill="none" stroke="black" points="2949.14,-673.6 2949.14,-704.4 3696.84,-704.4 3696.84,-673.6 2949.14,-673.6"/>
<text text-anchor="start" x="2956.14" y="-685.8" font-family="Arial" font-size="14.00">NivelRiesgo </text>
<text text-anchor="start" x="3034.72" y="-685.8" font-family="Arial" font-size="14.00" fill="#666666">[varchar(12)]</text>
<text text-anchor="start" x="3114.08" y="-685.8" font-family="Arial" font-size="14.00"> Nivel de riesgo del pais para operaciones financieras (ej:&#39; Sancionado, AltoRiesgo, Normal&#39;).</text>
<polygon fill="none" stroke="black" points="2949.14,-642.8 2949.14,-673.6 3696.84,-673.6 3696.84,-642.8 2949.14,-642.8"/>
<text text-anchor="start" x="2956.14" y="-655" font-family="Arial" font-size="14.00">NombrePais </text>
<text text-anchor="start" x="3037.05" y="-655" font-family="Arial" font-size="14.00" fill="#666666">[varchar(100)]</text>
<text text-anchor="start" x="3124.2" y="-655" font-family="Arial" font-size="14.00"> Nombre descriptivo del pais (ej:&#39; Estados Unidos de America, Francia&#39;).</text>
</g>
<!-- Catalogo.Producto -->
<g id="node6" class="node">
<title>Catalogo.Producto</title>
<polygon fill="#efefef" stroke="none" points="1827.74,-335.8 1827.74,-381.8 2496.24,-381.8 2496.24,-335.8 1827.74,-335.8"/>
<polygon fill="none" stroke="black" points="1827.74,-335.8 1827.74,-381.8 2496.24,-381.8 2496.24,-335.8 1827.74,-335.8"/>
<text text-anchor="start" x="2030.17" y="-359.6" font-family="Arial Bold" font-size="18.00">Catalogo.Producto</text>
<text text-anchor="start" x="2164.65" y="-359.6" font-family="Arial" font-size="14.00">    </text>
<text text-anchor="start" x="2195.77" y="-359.6" font-family="Arial" font-size="14.00" fill="#666666">[BASIC TABLE]</text>
<text text-anchor="start" x="1879.5" y="-345.2" font-family="Arial" font-size="14.00" fill="#333333">Catalogo de productos financieros ofrecidos por la cooperativa (cuentas, tarjetas, creditos).</text>
<polygon fill="none" stroke="black" points="1827.74,-305 1827.74,-335.8 2496.24,-335.8 2496.24,-305 1827.74,-305"/>
<text text-anchor="start" x="1834.74" y="-317.2" font-family="Arial" font-size="14.00">CodigoProducto </text>
<text text-anchor="start" x="1939.03" y="-317.2" font-family="Arial" font-size="14.00" fill="#666666">[varchar(10)]</text>
<text text-anchor="start" x="2018.39" y="-317.2" font-family="Arial" font-size="14.00"> Codigo unico del producto, usado en transacciones y operaciones del core.</text>
<polygon fill="none" stroke="black" points="1827.74,-274.2 1827.74,-305 2496.24,-305 2496.24,-274.2 1827.74,-274.2"/>
<text text-anchor="start" x="1834.74" y="-286.4" font-family="Arial" font-size="14.00">Estado </text>
<text text-anchor="start" x="1882.21" y="-286.4" font-family="Arial" font-size="14.00" fill="#666666">[char]</text>
<text text-anchor="start" x="1917.23" y="-286.4" font-family="Arial" font-size="14.00"> Indica si el producto esta activo o inactivo (I/A).</text>
<polygon fill="none" stroke="black" points="1827.74,-243.4 1827.74,-274.2 2496.24,-274.2 2496.24,-243.4 1827.74,-243.4"/>
<text text-anchor="start" x="1834.74" y="-255.6" font-family="Arial" font-size="14.00">IdProducto </text>
<text text-anchor="start" x="1906.34" y="-255.6" font-family="Arial" font-size="14.00" fill="#666666">[int]</text>
<polygon fill="none" stroke="black" points="1827.74,-212.6 1827.74,-243.4 2496.24,-243.4 2496.24,-212.6 1827.74,-212.6"/>
<text text-anchor="start" x="1834.74" y="-224.8" font-family="Arial" font-size="14.00">Marca </text>
<text text-anchor="start" x="1877.52" y="-224.8" font-family="Arial" font-size="14.00" fill="#666666">[varchar(20)]</text>
<text text-anchor="start" x="1956.88" y="-224.8" font-family="Arial" font-size="14.00"> Marca del producto (ej:&#39; Visa, Mastercard, American Express&#39;).</text>
<polygon fill="none" stroke="black" points="1827.74,-181.8 1827.74,-212.6 2496.24,-212.6 2496.24,-181.8 1827.74,-181.8"/>
<text text-anchor="start" x="1834.74" y="-194" font-family="Arial" font-size="14.00">MontoAperturaMinimo </text>
<text text-anchor="start" x="1976.35" y="-194" font-family="Arial" font-size="14.00" fill="#666666">[decimal]</text>
<text text-anchor="start" x="2032.37" y="-194" font-family="Arial" font-size="14.00"> Monto minimo requerido para apertura del producto.</text>
<polygon fill="none" stroke="black" points="1827.74,-151 1827.74,-181.8 2496.24,-181.8 2496.24,-151 1827.74,-151"/>
<text text-anchor="start" x="1834.74" y="-163.2" font-family="Arial" font-size="14.00">MontoMaximo </text>
<text text-anchor="start" x="1926.55" y="-163.2" font-family="Arial" font-size="14.00" fill="#666666">[decimal]</text>
<text text-anchor="start" x="1982.57" y="-163.2" font-family="Arial" font-size="14.00"> Monto maximo permitido para el producto (ej:&#39; 100000 para cuentas corrientes&#39;).</text>
<polygon fill="none" stroke="black" points="1827.74,-120.2 1827.74,-151 2496.24,-151 2496.24,-120.2 1827.74,-120.2"/>
<text text-anchor="start" x="1834.74" y="-132.4" font-family="Arial" font-size="14.00">MontoMinimo </text>
<text text-anchor="start" x="1922.66" y="-132.4" font-family="Arial" font-size="14.00" fill="#666666">[decimal]</text>
<text text-anchor="start" x="1978.68" y="-132.4" font-family="Arial" font-size="14.00"> Monto minimo permitido para el producto (ej:&#39; 1000 para cuentas de ahorro&#39;).</text>
<polygon fill="none" stroke="black" points="1827.74,-89.4 1827.74,-120.2 2496.24,-120.2 2496.24,-89.4 1827.74,-89.4"/>
<text text-anchor="start" x="1834.74" y="-101.6" font-family="Arial" font-size="14.00">NombreProducto </text>
<text text-anchor="start" x="1944.46" y="-101.6" font-family="Arial" font-size="14.00" fill="#666666">[varchar(100)]</text>
<text text-anchor="start" x="2031.6" y="-101.6" font-family="Arial" font-size="14.00"> Nombre descriptivo del producto, usado en reportes y logs.</text>
<polygon fill="none" stroke="black" points="1827.74,-58.6 1827.74,-89.4 2496.24,-89.4 2496.24,-58.6 1827.74,-58.6"/>
<text text-anchor="start" x="1834.74" y="-70.8" font-family="Arial" font-size="14.00">TipoProducto </text>
<text text-anchor="start" x="1921.9" y="-70.8" font-family="Arial" font-size="14.00" fill="#666666">[varchar(10)]</text>
<text text-anchor="start" x="2001.26" y="-70.8" font-family="Arial" font-size="14.00"> Tipo de producto (ej:&#39; Credito, Tarjeta, Cuenta&#39;).</text>
</g>
<!-- Catalogo.ProductoCanalCupo -->
<g id="node7" class="node">
<title>Catalogo.ProductoCanalCupo</title>
<polygon fill="#efefef" stroke="none" points="1039.08,-873.8 1039.08,-919.8 2000.9,-919.8 2000.9,-873.8 1039.08,-873.8"/>
<polygon fill="none" stroke="black" points="1039.08,-873.8 1039.08,-919.8 2000.9,-919.8 2000.9,-873.8 1039.08,-873.8"/>
<text text-anchor="start" x="1347.68" y="-897.6" font-family="Arial Bold" font-size="18.00">Catalogo.ProductoCanalCupo</text>
<text text-anchor="start" x="1563.15" y="-897.6" font-family="Arial" font-size="14.00">    </text>
<text text-anchor="start" x="1594.27" y="-897.6" font-family="Arial" font-size="14.00" fill="#666666">[BASIC TABLE]</text>
<text text-anchor="start" x="1072.13" y="-883.2" font-family="Arial" font-size="14.00" fill="#333333">Relacion producto&#45;canal con los cupos/limites operativos habilitados, parametrizados y definidos por el ente financiero; por canal y por producto.</text>
<polygon fill="none" stroke="black" points="1039.08,-843 1039.08,-873.8 2000.9,-873.8 2000.9,-843 1039.08,-843"/>
<text text-anchor="start" x="1046.08" y="-855.2" font-family="Arial" font-size="14.00">CodigoMoneda </text>
<text text-anchor="start" x="1144.93" y="-855.2" font-family="Arial" font-size="14.00" fill="#666666">[smallint]</text>
<text text-anchor="start" x="1200.16" y="-855.2" font-family="Arial" font-size="14.00"> Codigo de la moneda en la que se expresa el cupo/limite.</text>
<polygon fill="none" stroke="black" points="1039.08,-812.2 1039.08,-843 2000.9,-843 2000.9,-812.2 1039.08,-812.2"/>
<text text-anchor="start" x="1046.08" y="-824.4" font-family="Arial" font-size="14.00">CupoDiarioMaximo </text>
<text text-anchor="start" x="1169.01" y="-824.4" font-family="Arial" font-size="14.00" fill="#666666">[decimal]</text>
<text text-anchor="start" x="1225.03" y="-824.4" font-family="Arial" font-size="14.00"> Cupo maximo diario permitido y parametrizado por el ente financiero para el producto en el canal.</text>
<polygon fill="none" stroke="black" points="1039.08,-781.4 1039.08,-812.2 2000.9,-812.2 2000.9,-781.4 1039.08,-781.4"/>
<text text-anchor="start" x="1046.08" y="-793.6" font-family="Arial" font-size="14.00">CupoMensualMaximo </text>
<text text-anchor="start" x="1185.36" y="-793.6" font-family="Arial" font-size="14.00" fill="#666666">[decimal]</text>
<text text-anchor="start" x="1241.38" y="-793.6" font-family="Arial" font-size="14.00"> Cupo maximo mensual permitido y parametrizado por el ente financiero para el producto en el canal.</text>
<polygon fill="none" stroke="black" points="1039.08,-750.6 1039.08,-781.4 2000.9,-781.4 2000.9,-750.6 1039.08,-750.6"/>
<text text-anchor="start" x="1046.08" y="-762.8" font-family="Arial" font-size="14.00">Estado </text>
<text text-anchor="start" x="1093.56" y="-762.8" font-family="Arial" font-size="14.00" fill="#666666">[char]</text>
<text text-anchor="start" x="1128.57" y="-762.8" font-family="Arial" font-size="14.00"> Indica si el cupo/limite esta activo o inactivo (I/A).</text>
<polygon fill="none" stroke="black" points="1039.08,-719.8 1039.08,-750.6 2000.9,-750.6 2000.9,-719.8 1039.08,-719.8"/>
<text text-anchor="start" x="1046.08" y="-732" font-family="Arial" font-size="14.00">FechaRegistro </text>
<text text-anchor="start" x="1141.01" y="-732" font-family="Arial" font-size="14.00" fill="#666666">[datetime2]</text>
<text text-anchor="start" x="1210.27" y="-732" font-family="Arial" font-size="14.00"> Fecha en la que se registro el cupo/limite, usado en reportes y logs.</text>
<polygon fill="none" stroke="black" points="1039.08,-689 1039.08,-719.8 2000.9,-719.8 2000.9,-689 1039.08,-689"/>
<text text-anchor="start" x="1046.08" y="-701.2" font-family="Arial" font-size="14.00">IdCanal </text>
<text text-anchor="start" x="1098.22" y="-701.2" font-family="Arial" font-size="14.00" fill="#666666">[int]</text>
<text text-anchor="start" x="1120.79" y="-701.2" font-family="Arial" font-size="14.00"> FK a Canal, indica el canal al que aplica el cupo.</text>
<polygon fill="none" stroke="black" points="1039.08,-658.2 1039.08,-689 2000.9,-689 2000.9,-658.2 1039.08,-658.2"/>
<text text-anchor="start" x="1046.08" y="-670.4" font-family="Arial" font-size="14.00">IdProducto </text>
<text text-anchor="start" x="1117.68" y="-670.4" font-family="Arial" font-size="14.00" fill="#666666">[int]</text>
<text text-anchor="start" x="1140.25" y="-670.4" font-family="Arial" font-size="14.00"> FK a Producto, indica el producto al que aplica el cupo.</text>
<polygon fill="none" stroke="black" points="1039.08,-627.4 1039.08,-658.2 2000.9,-658.2 2000.9,-627.4 1039.08,-627.4"/>
<text text-anchor="start" x="1046.08" y="-639.6" font-family="Arial" font-size="14.00">IdProductoCanalCupo </text>
<text text-anchor="start" x="1187.73" y="-639.6" font-family="Arial" font-size="14.00" fill="#666666">[int]</text>
<polygon fill="none" stroke="black" points="1039.08,-596.6 1039.08,-627.4 2000.9,-627.4 2000.9,-596.6 1039.08,-596.6"/>
<text text-anchor="start" x="1046.08" y="-608.8" font-family="Arial" font-size="14.00">MaxTransaccionesDia </text>
<text text-anchor="start" x="1188.47" y="-608.8" font-family="Arial" font-size="14.00" fill="#666666">[smallint]</text>
<text text-anchor="start" x="1243.7" y="-608.8" font-family="Arial" font-size="14.00"> Cantidad maxima de transacciones por dia permitido y parametrizado por el ente financiero para el producto en el canal.</text>
<polygon fill="none" stroke="black" points="1039.08,-565.8 1039.08,-596.6 2000.9,-596.6 2000.9,-565.8 1039.08,-565.8"/>
<text text-anchor="start" x="1046.08" y="-578" font-family="Arial" font-size="14.00">MontoMaxTransaccion </text>
<text text-anchor="start" x="1191.58" y="-578" font-family="Arial" font-size="14.00" fill="#666666">[decimal]</text>
<text text-anchor="start" x="1247.6" y="-578" font-family="Arial" font-size="14.00"> Monto maximo por transaccion permitido y parametrizado por el ente financiero para el producto en el canal.</text>
</g>
<!-- Catalogo.ProductoCanalCupo&#45;&gt;Catalogo.Canal -->
<g id="edge3" class="edge">
<title>Catalogo.ProductoCanalCupo:IdCanal&#45;&gt;Catalogo.Canal:IdCanal</title>
<path fill="none" stroke="black" d="M1027.84,-703.68C959.85,-693.61 987.71,-580.19 1039.08,-522.6 1242.91,-294.08 1519.45,-669.04 1723.16,-440.4 1756.83,-402.6 1774.78,-212.6 1724.16,-212.6"/>
<polygon fill="black" stroke="black" points="1027.77,-703.68 1037.43,-708.87 1033.09,-704.05 1037.41,-704.35 1037.41,-704.35 1037.41,-704.35 1033.09,-704.05 1038.06,-699.89 1027.77,-703.68"/>
</g>
<!-- Catalogo.ProductoCanalCupo&#45;&gt;Catalogo.Monedas -->
<g id="edge4" class="edge">
<title>Catalogo.ProductoCanalCupo:CodigoMoneda&#45;&gt;Catalogo.Monedas:CodigoMoneda</title>
<path fill="none" stroke="black" d="M1027.97,-856.7C959.67,-831.83 1037.35,-541.07 986.99,-476.4 960.52,-442.41 925.2,-472.96 896.99,-440.4 833.39,-366.99 942.69,-228 845.57,-228"/>
<polygon fill="black" stroke="black" points="1027.89,-856.69 1037.01,-862.78 1033.15,-857.57 1037.42,-858.29 1037.42,-858.29 1037.42,-858.29 1033.15,-857.57 1038.5,-853.91 1027.89,-856.69"/>
</g>
<!-- Catalogo.ProductoCanalCupo&#45;&gt;Catalogo.Producto -->
<g id="edge5" class="edge">
<title>Catalogo.ProductoCanalCupo:IdProducto&#45;&gt;Catalogo.Producto:IdProducto</title>
<path fill="none" stroke="black" d="M2012.02,-672.79C2065.28,-663.52 2033.08,-577.27 2000.9,-522.6 1956.08,-446.47 1872.53,-501.14 1827.74,-425 1790.28,-361.33 1752.87,-258.8 1826.74,-258.8"/>
<polygon fill="black" stroke="black" points="2012.2,-672.77 2001.87,-669.09 2006.88,-673.2 2002.56,-673.55 2002.56,-673.55 2002.56,-673.55 2006.88,-673.2 2002.59,-678.06 2012.2,-672.77"/>
</g>
</g>
</svg>
